<?xml version="1.0" encoding="UTF-8"?>
<svg version="1.1" xmlns="http://www.w3.org/2000/svg" width="1024" height="1024">
<path d="M0 0 C337.92 0 675.84 0 1024 0 C1024 337.92 1024 675.84 1024 1024 C686.08 1024 348.16 1024 0 1024 C0 686.08 0 348.16 0 0 Z " fill="#FDFDFC" transform="translate(0,0)"/>
<path d="M0 0 C3.72293327 2.55181187 6.81127019 5.81602949 10 9 C10.78117187 9.76957031 11.56234375 10.53914062 12.3671875 11.33203125 C25.52785777 25.06193466 31.37118069 41.07253864 32 60 C32.54785156 59.68546875 33.09570312 59.3709375 33.66015625 59.046875 C50.34080673 50.04203604 69.21275785 48.1916547 87.46875 53.16088867 C97.52192239 56.19971187 106.15803295 61.05861221 114 68 C115.21816406 69.07701172 115.21816406 69.07701172 116.4609375 70.17578125 C131.55244991 84.36180291 140.43169933 103.23286593 141.21484375 123.93359375 C141.80220929 148.18463822 137.39881615 169.84994658 125.94921875 191.21923828 C125.10091741 192.81067603 124.28272631 194.41807937 123.46875 196.02734375 C117.66415521 207.26568422 109.64577799 216.84031213 101 226 C100.30390625 226.76054688 99.6078125 227.52109375 98.890625 228.3046875 C86.65030017 241.2151031 70.80421101 249.36464591 54.25 255.375 C53.60192383 255.61371826 52.95384766 255.85243652 52.28613281 256.09838867 C41.24858953 259.90372622 29.96029811 260.40727055 18.375 260.375 C17.67234009 260.37478851 16.96968018 260.37457703 16.24572754 260.37435913 C0.31476095 260.32658163 -13.51359914 257.95191891 -28 251 C-29.10601562 250.49726562 -30.21203125 249.99453125 -31.3515625 249.4765625 C-47.06010646 242.05767145 -61.01546877 231.50707494 -72 218 C-72.77214844 217.06542969 -73.54429687 216.13085938 -74.33984375 215.16796875 C-98.41437249 185.40676512 -109.0586181 147.54649309 -105.79345703 109.59960938 C-102.98258941 86.92138063 -89.84220033 67.16497334 -72.15234375 53.171875 C-55.87332358 41.95609407 -38.94554748 37.80237647 -19.34375 40.50390625 C-16.15659048 41.18079086 -13.10420463 42.01175514 -10 43 C-8.92363281 43.3403125 -7.84726562 43.680625 -6.73828125 44.03125 C3.40046682 47.58281145 11.71236894 53.25879285 20 60 C18.08830746 46.63492143 15.1071088 34.79224291 4 26 C-2.38054702 21.52683957 -9.1363798 17.67754465 -16 14 C-15.42666443 10.14542086 -13.65508307 8.14887027 -11.0625 5.3125 C-10.35222656 4.52488281 -9.64195312 3.73726562 -8.91015625 2.92578125 C-6.00039229 -0.00778446 -4.07809811 -0.46504628 0 0 Z " fill="#D80304" transform="translate(483,558)"/>
<path d="M0 0 C1.53981687 2.32908471 2.67721668 4.36384353 3.8125 6.875 C4.27946289 7.83212891 4.27946289 7.83212891 4.75585938 8.80859375 C6.13315415 11.70848033 7 13.75479911 7 17 C4.77151502 17.75207515 2.54231126 18.50187337 0.3125 19.25 C-0.37593994 19.48178955 -1.06437988 19.7135791 -1.77368164 19.95239258 C-5.80505824 21.30021414 -9.84607112 22.53194779 -13.9375 23.6875 C-49.44352271 34.56203832 -81.33494559 54.56539915 -109 79 C-109.52658203 79.46341797 -110.05316406 79.92683594 -110.59570312 80.40429688 C-123.75592394 92.0614062 -135.68333171 104.75317236 -146 119 C-147.13695312 120.57007813 -147.13695312 120.57007813 -148.296875 122.171875 C-161.57083963 140.93851465 -173.14388415 161.37257518 -181 183 C-181.50493829 184.3438515 -182.01015594 185.68759806 -182.515625 187.03125 C-187.85456512 201.44285484 -191.6500109 216.04166487 -194.25 231.1875 C-194.49484131 232.59237671 -194.49484131 232.59237671 -194.74462891 234.02563477 C-205.73385837 301.85106536 -187.26525597 373.12894335 -147.57299805 428.73681641 C-146.05779271 430.83141411 -144.53256337 432.91807471 -143 435 C-142.55430664 435.6069873 -142.10861328 436.21397461 -141.64941406 436.83935547 C-131.27416603 450.83305908 -119.24300726 463.686757 -106 475 C-105.36449219 475.57363281 -104.72898437 476.14726563 -104.07421875 476.73828125 C-92.92659268 486.77806871 -80.70893328 495.08889745 -68 503 C-67.3301709 503.4228125 -66.6603418 503.845625 -65.97021484 504.28125 C-28.5603743 527.78289215 17.7462648 542.97902278 62.16015625 543.203125 C63.09912247 543.21032059 64.03808868 543.21751617 65.00550842 543.22492981 C107.15803107 543.47434787 146.09024824 538.1168178 185 521 C186.05219727 520.53722656 187.10439453 520.07445312 188.18847656 519.59765625 C207.73101626 510.86475023 226.26974586 500.41093607 243 487 C244.23818182 486.0285191 245.47647018 485.05717396 246.71484375 484.0859375 C265.02513988 469.59234079 280.84306182 453.55103399 295 435 C295.70125 434.08347656 296.4025 433.16695312 297.125 432.22265625 C322.40963807 398.32288948 338.56182969 358.47220275 346 317 C346.16661133 316.08831055 346.33322266 315.17662109 346.50488281 314.23730469 C349.66997711 296.23624043 349.40682791 278.20374334 349 260 C348.97921387 259.04706055 348.95842773 258.09412109 348.93701172 257.11230469 C348.33011852 234.71569781 343.001491 212.5655865 336 191.375 C335.6800708 190.4041748 335.3601416 189.43334961 335.03051758 188.43310547 C330.83886796 176.1044755 324.90990963 164.57260356 319 153 C318.4328125 151.88238281 317.865625 150.76476562 317.28125 149.61328125 C307.34431348 130.5596742 294.29087211 113.04608603 279.45703125 97.546875 C278.0036362 96.00386042 276.5910818 94.43211708 275.1875 92.84375 C270.04431716 87.03959952 264.71104953 81.86917372 258.59375 77.06640625 C256.24442254 75.1947282 254.06591065 73.23937209 251.875 71.1875 C240.83721943 61.29291813 227.92066849 53.20187328 215 46 C214.16758789 45.5359375 213.33517578 45.071875 212.47753906 44.59375 C192.49036522 33.57030331 171.84868201 25.50106641 150 19 C148.59783375 14.38784308 149.53725264 11.22769598 150.9375 6.6875 C151.31777344 5.43324219 151.69804688 4.17898438 152.08984375 2.88671875 C152.39019531 1.93410156 152.69054687 0.98148437 153 0 C160.87436459 0.36894029 167.72360975 2.24010283 175.125 4.875 C176.25156006 5.27138672 177.37812012 5.66777344 178.53881836 6.07617188 C190.36187161 10.3361366 201.7305431 15.45399118 213 21 C213.79760742 21.391875 214.59521484 21.78375 215.41699219 22.1875 C226.4564468 27.67625775 236.80666648 34.07810816 247 41 C247.62003906 41.41894531 248.24007813 41.83789062 248.87890625 42.26953125 C260.99043051 50.50955315 271.872889 60.07133753 282.6953125 69.91796875 C284.23814465 71.31174762 285.79572428 72.6893651 287.3671875 74.05078125 C291.60307914 77.72331356 295.44753556 81.4655977 299.0625 85.75 C300.96879927 87.96376689 302.94792532 90.09612805 304.94848633 92.22460938 C310.79767907 98.47923136 316.07931266 104.98247768 321 112 C321.56315918 112.79325684 322.12631836 113.58651367 322.70654297 114.40380859 C337.67088834 135.6223735 350.57427962 158.3585071 359 183 C359.44756602 184.26314513 359.89547806 185.52616772 360.34375 186.7890625 C361.62788502 190.50835602 362.82926158 194.24355785 364 198 C364.30502441 198.94770264 364.30502441 198.94770264 364.61621094 199.91455078 C371.02200312 220.01634636 375.09383299 242.4668021 375.203125 263.5703125 C375.21357849 264.93036156 375.21357849 264.93036156 375.22424316 266.31788635 C375.24163308 269.25363816 375.24797047 272.18919872 375.25 275.125 C375.25100708 276.12810211 375.25201416 277.13120422 375.25305176 278.16470337 C375.23325843 307.36190382 372.02895573 334.586754 363.375 362.4921875 C362.29227024 365.99368924 361.32896846 369.5067565 360.4375 373.0625 C359.23044217 377.55774984 357.50042591 381.61908402 355.5 385.81640625 C354.37304544 388.20824991 353.29572847 390.60032568 352.25 393.02734375 C337.13100744 428.05944097 315.73186399 458.75985063 288.6875 485.625 C288.14130005 486.17004181 287.5951001 486.71508362 287.03234863 487.27664185 C279.11533671 495.16056266 271.06109089 502.4526311 262 509 C260.4611937 510.2263284 258.92243883 511.45273715 257.38842773 512.68505859 C222.89827438 540.09551355 179.12678438 558.88805722 136 567 C135.21625 567.15017578 134.4325 567.30035156 133.625 567.45507812 C113.5098596 571.24365609 93.51416311 572.47562697 73.0625 572.5 C71.87979523 572.50201416 70.69709045 572.50402832 69.47854614 572.50610352 C36.27892365 572.46808985 3.00964884 567.40461019 -28 555 C-28.82161621 554.67765381 -29.64323242 554.35530762 -30.48974609 554.02319336 C-66.81030719 539.6461694 -99.97037299 519.99070926 -128.49926758 493.15991211 C-130.8303556 490.97078958 -133.168824 488.86617309 -135.67578125 486.87890625 C-137.84209721 485.12764915 -139.5353662 483.38432446 -141.3125 481.25 C-143.67832603 478.47206234 -146.10919724 475.89159322 -148.75 473.375 C-153.9319764 468.26318575 -158.27029427 462.50678325 -162.67578125 456.72998047 C-163.86510708 455.17622626 -165.0720885 453.63602439 -166.28125 452.09765625 C-172.66442312 443.8527243 -178.19261459 435.10898517 -183.63671875 426.22460938 C-184.46463185 424.87361651 -185.2968088 423.52520792 -186.13671875 422.18164062 C-197.4199786 404.08951708 -204.86406966 383.80395432 -211.18969727 363.54003906 C-211.93291597 361.21028692 -212.7398876 358.9133399 -213.55859375 356.609375 C-215.45600922 350.94356901 -216.47893085 345.11562985 -217.5625 339.25 C-217.77068359 338.15945313 -217.97886719 337.06890625 -218.19335938 335.9453125 C-221.81929003 316.7131035 -223.25936361 298.04060338 -223.3125 278.5 C-223.31742462 277.01564957 -223.31742462 277.01564957 -223.32244873 275.50131226 C-223.34045749 258.66635131 -222.1519076 242.55660554 -219 226 C-218.84152588 225.13511963 -218.68305176 224.27023926 -218.51977539 223.37915039 C-217.3896787 217.42545614 -215.88019851 211.62920778 -214.1875 205.8125 C-213.92396729 204.90121338 -213.66043457 203.98992676 -213.38891602 203.05102539 C-200.95102501 160.44160476 -179.77730713 120.24289319 -149 88 C-147.82473427 86.65328959 -146.65714472 85.29981222 -145.5 83.9375 C-138.50477741 75.90964931 -130.91953831 68.72169105 -122.58984375 62.09765625 C-120.27830752 60.2254165 -118.11042159 58.2789073 -115.9375 56.25 C-105.06153056 46.48701127 -92.55037411 38.41680848 -80 31 C-78.78890607 30.24060235 -77.57933953 29.47876484 -76.37109375 28.71484375 C-59.5753445 18.25996163 -40.87895422 9.91795585 -22 4 C-21.29633301 3.77199707 -20.59266602 3.54399414 -19.86767578 3.30908203 C-17.56231716 2.5650866 -15.25151173 1.84159243 -12.9375 1.125 C-12.22190918 0.8969165 -11.50631836 0.66883301 -10.76904297 0.43383789 C-3.60182365 -1.70678751 -3.60182365 -1.70678751 0 0 Z " fill="#357F1B" transform="translate(436,295)"/>
<path d="M0 0 C2.265625 0.953125 2.265625 0.953125 4.25 2.25 C4.91515625 2.66765625 5.5803125 3.0853125 6.265625 3.515625 C9.09293477 5.93539462 9.88545115 8.24725041 10.4375 11.875 C9.85984127 16.00113377 8.05127677 18.3117932 5 21 C1.88659958 22.75506635 -1.37165682 24.05209249 -4.6875 25.375 C-12.42440132 28.66658863 -18.9685231 32.00338713 -25 38 C-25.69996094 38.68578125 -26.39992188 39.3715625 -27.12109375 40.078125 C-36.59001276 50.03033477 -44.80610214 64.22197165 -45.625 78.1875 C-45.33545071 83.98813745 -42.68792675 88.9505376 -40 94 C-39.79246094 93.26136719 -39.58492188 92.52273438 -39.37109375 91.76171875 C-35.4577468 78.87550933 -29.30883922 69.59943513 -18.125 62.0625 C-16 61 -16 61 -14 61 C-14.31182069 62.41681634 -14.62448737 63.83344651 -14.9375 65.25 C-15.11152344 66.03890625 -15.28554688 66.8278125 -15.46484375 67.640625 C-16 70 -16 70 -16.5625 71.8125 C-17.2221039 75.11051948 -17.10363261 78.40243804 -17.0625 81.75 C-17.05798828 82.44738281 -17.05347656 83.14476562 -17.04882812 83.86328125 C-17.0371002 85.57555803 -17.01916653 87.28779033 -17 89 C-16.59910156 88.41992188 -16.19820313 87.83984375 -15.78515625 87.2421875 C-10.48504582 79.95904256 -4.5772481 74.9875808 4 72 C7.3125 71.875 7.3125 71.875 10 72 C9.60167969 72.60585938 9.20335937 73.21171875 8.79296875 73.8359375 C8.26316406 74.67382812 7.73335938 75.51171875 7.1875 76.375 C6.66542969 77.18710937 6.14335937 77.99921875 5.60546875 78.8359375 C1.03749555 87.83851243 0.60401111 96.13891662 0.8125 106.125 C0.82603516 107.36765625 0.83957031 108.6103125 0.85351562 109.890625 C0.88855705 112.92754831 0.93768567 115.96353467 1 119 C1.99902344 119.11214844 2.99804688 119.22429687 4.02734375 119.33984375 C8.05039195 119.92062525 11.77187222 121.12151644 15.5625 122.5625 C16.25504883 122.82571045 16.94759766 123.0889209 17.66113281 123.36010742 C29.61038399 128.06809057 40.01532152 134.95112653 50 143 C50.556875 143.44859375 51.11375 143.8971875 51.6875 144.359375 C65.87894002 155.88992002 77.55150036 169.00275114 88 184 C88.49258301 184.69915527 88.98516602 185.39831055 89.49267578 186.11865234 C90.19432861 187.16400146 90.19432861 187.16400146 90.91015625 188.23046875 C91.33562744 188.85719482 91.76109863 189.4839209 92.19946289 190.12963867 C93.21977381 192.5134758 92.87921215 193.60330299 92 196 C91.67 196.66 91.34 197.32 91 198 C90.37956737 203.00777762 90.10357355 206.76082226 93.125 210.9375 C95.94348308 213.09114589 95.94348308 213.09114589 99.1875 214.5 C102 216 102 216 103.375 218.5 C104 221 104 221 104 224 C102.9378125 223.84273437 101.875625 223.68546875 100.78125 223.5234375 C84.88380398 221.56070361 68.81278223 221.52553889 54 228 C53.38737305 228.26232422 52.77474609 228.52464844 52.14355469 228.79492188 C43.8523697 232.4058087 36.70265534 236.91775573 30 243 C29.16855469 243.73863281 28.33710938 244.47726562 27.48046875 245.23828125 C10.16629369 261.4886053 0.66293189 284.82751056 -0.11035156 308.35791016 C-0.5702285 337.24051996 2.03354878 363.87151622 16.23828125 389.73046875 C18.05340853 393.09911961 19.5406993 396.46624722 21 400 C14.83984225 399.45743868 9.77077755 397.52445135 4.125 395.0625 C3.20533447 394.66353516 2.28566895 394.26457031 1.33813477 393.85351562 C-19.64003142 384.53230228 -36.86347451 371.19013521 -53 355 C-53.82564453 354.2265625 -53.82564453 354.2265625 -54.66796875 353.4375 C-78.34819485 331.03564086 -94.10675696 296.65091345 -100 265 C-100.21398437 263.89785156 -100.42796875 262.79570313 -100.6484375 261.66015625 C-107.56046811 223.54381356 -102.60466954 182.69895931 -81 150 C-80.01 149.01 -80.01 149.01 -79 148 C-78.24836625 141.30688044 -79.67680603 137.79938184 -83.5625 132.4375 C-84.02068115 131.78201172 -84.4788623 131.12652344 -84.95092773 130.45117188 C-90.17543438 123.11763126 -96.06718993 117.75130766 -103.27734375 112.3828125 C-103.84582031 111.92648437 -104.41429687 111.47015625 -105 111 C-105 110.67 -105 110.34 -105 110 C-93.82884581 109.39796175 -85.18349409 109.8233905 -75 115 C-74.505 115.495 -74.505 115.495 -74 116 C-74.50548175 109.42873729 -77.21132757 103.52529781 -82.109375 99.08984375 C-84.03288516 97.64721113 -85.96868319 96.28532453 -88 95 C-86 93 -86 93 -83.86328125 92.734375 C-74.31953971 92.7928359 -67.35934706 95.59326171 -59 100 C-59.04640625 98.83726562 -59.0928125 97.67453125 -59.140625 96.4765625 C-60.00927719 65.00615585 -47.20618107 38.69370376 -26 16 C-25.27941406 15.19820313 -24.55882812 14.39640625 -23.81640625 13.5703125 C-17.75676668 7.09493882 -9.39201851 -1.16450903 0 0 Z " fill="#FDAF06" transform="translate(368,367)"/>
<path d="M0 0 C8.47771797 4.23885898 14.37845934 9.60901524 19 18 C19 18.99 19 19.98 19 21 C22.66038898 17.61328496 25.40850722 13.81399549 28.25 9.75 C28.70890625 9.1003125 29.1678125 8.450625 29.640625 7.78125 C30.76389558 6.18995001 31.88243056 4.59530905 33 3 C33.99 3.33 34.98 3.66 36 4 C36.34087334 5.54001707 36.67230953 7.08212406 37 8.625 C37.2784375 9.91277344 37.2784375 9.91277344 37.5625 11.2265625 C38.03039618 14.19269005 38.07033259 17.00207333 38 20 C38.70125 19.50628906 39.4025 19.01257813 40.125 18.50390625 C45.87273395 14.62262395 50.01131889 12.13186191 57 12 C56.76864212 16.3957997 55.40166764 19.14164894 53.0625 22.75 C49.92874753 27.694866 48.71202435 32.23014751 48 38 C49.16789062 38.14179688 50.33578125 38.28359375 51.5390625 38.4296875 C79.85359982 41.99853783 104.81152412 53.15223714 123 76 C137.64901482 95.91303452 140.31181757 117.7008987 137.6953125 141.80712891 C134.31894436 163.80089432 123.18204182 183.46296745 110 201 C109.56042969 201.76957031 109.12085938 202.53914062 108.66796875 203.33203125 C106.0885609 205.9114391 103.09115467 205.76431774 99.625 206 C81.31167677 207.79940735 69.31908673 214.83778186 57 228 C52.85913343 226.39676662 50.28413673 223.34495313 47.3125 220.1875 C41.50264437 214.23693347 36.06085833 208.86869254 27.3125 208.5625 C23.62244613 208.68063732 20.46465916 209.76580811 17 211 C13.08424033 206.15452085 9.20788363 201.29141307 5.47045898 196.30639648 C-3.17537695 184.83799519 -12.54821427 174.73441285 -24 166 C-24.93328125 165.26265625 -25.8665625 164.5253125 -26.828125 163.765625 C-37.8613376 155.21046015 -49.18717088 148.22599684 -62.3671875 143.58203125 C-65 142 -65 142 -65.87109375 139.37890625 C-65.91363281 138.26386719 -65.95617187 137.14882813 -66 136 C-66.0299707 135.33750244 -66.05994141 134.67500488 -66.09082031 133.99243164 C-66.94585605 109.91884619 -63.37948905 90.28801359 -47 72 C-38.08423953 62.54598155 -27.17728947 55.51425761 -15.57421875 49.7734375 C-12.25908573 48.36546366 -12.25908573 48.36546366 -11 47 C-10.18065006 42.82876396 -10.25746927 39.33054639 -12.3515625 35.578125 C-15.78457832 31.07134652 -19.57429357 27.49939578 -24 24 C-26 21 -26 21 -26 18 C-16.76250405 17.14069805 -8.10936151 20.94531925 0 25 C0 16.75 0 8.5 0 0 Z " fill="#D70304" transform="translate(452,341)"/>
<path d="M0 0 C4.82714124 0.88921023 8.06047229 2.90409007 12.0859375 5.62109375 C12.80910156 6.08966797 13.53226562 6.55824219 14.27734375 7.04101562 C19.42349646 10.39615271 19.42349646 10.39615271 20.7109375 11.68359375 C22.75035336 11.95168057 24.79839243 12.15425221 26.84765625 12.33203125 C27.82162102 12.41741905 27.82162102 12.41741905 28.81526184 12.50453186 C31.00923207 12.69456078 33.20376344 12.87688462 35.3984375 13.05859375 C36.16478516 13.12362091 36.93113281 13.18864807 37.72070312 13.25564575 C52.17279261 14.47956079 66.63936143 15.40768164 81.11508179 16.30014038 C97.62336002 17.32485884 114.07532378 18.73036367 130.52929688 20.41381836 C149.61821277 23.0114872 149.61821277 23.0114872 167.5234375 17.68359375 C173.14062191 14.4953165 178.1341855 12.20155447 184.7109375 13.68359375 C187.90270147 16.29191699 188.60086847 17.84747301 189.13671875 21.91796875 C189.09933594 23.078125 189.06195312 24.23828125 189.0234375 25.43359375 C188.99894531 26.5834375 188.97445312 27.73328125 188.94921875 28.91796875 C186.883736 61.55936821 171.58966666 93.02402125 147.8984375 115.43359375 C128.61648957 132.01303244 105.87241681 140.39910308 80.39355469 138.94238281 C56.14072647 136.60273976 34.64888694 122.53984885 19.36767578 104.05908203 C-0.10859465 79.46856528 -8.43573793 50.7171012 -8.8515625 19.62109375 C-8.87847168 18.42572998 -8.90538086 17.23036621 -8.93310547 15.9987793 C-8.89171671 6.66694888 -8.89171671 6.66694888 -6.19140625 2.875 C-3.2890625 0.68359375 -3.2890625 0.68359375 0 0 Z " fill="#FDF8F2" transform="translate(413.2890625,640.31640625)"/>
<path d="M0 0 C1.5768457 -0.0309375 1.5768457 -0.0309375 3.18554688 -0.0625 C18.90147804 -0.13977563 33.87413026 4.7300649 45.6875 15.25 C58.00403268 28.42582565 60.53290414 41.49414907 59.984375 58.86328125 C59.7025906 64.78177462 59.12692314 70.49230744 57.6875 76.25 C57.50445313 77.0440625 57.32140625 77.838125 57.1328125 78.65625 C55.04302561 86.60260017 51.33506543 93.92652882 47.6875 101.25 C47.31173828 102.00555176 46.93597656 102.76110352 46.54882812 103.53955078 C38.9451059 118.69393149 30.75202817 133.16279414 18.6875 145.25 C18.10484375 145.84425781 17.5221875 146.43851563 16.921875 147.05078125 C10.70706281 152.90257871 3.66689607 155.43606656 -4.8125 155.875 C-11.61106136 155.61136601 -16.22249445 153.75604943 -21.3125 149.25 C-30.30504992 139.41835652 -35.14793297 127.78422715 -35.5625 114.5625 C-35.98919214 108.12825347 -37.17394088 102.37021196 -41.3125 97.25 C-48.02889961 94.29357128 -55.07553157 96.92384768 -61.5 99.3125 C-63.07321048 99.89654321 -64.64995968 100.47116267 -66.23046875 101.03515625 C-67.26337036 101.42006226 -67.26337036 101.42006226 -68.31713867 101.81274414 C-70.73352078 102.34226089 -72.0303551 102.19843153 -74.3125 101.25 C-75.54516602 99.7980957 -75.54516602 99.7980957 -76.56640625 97.92578125 C-76.94482666 97.23468262 -77.32324707 96.54358398 -77.71313477 95.83154297 C-78.09655029 95.08275879 -78.47996582 94.33397461 -78.875 93.5625 C-79.27195068 92.78793457 -79.66890137 92.01336914 -80.07788086 91.21533203 C-87.13512961 76.91268043 -89.02276502 59.05470986 -85.43359375 43.421875 C-79.32079297 27.6859522 -65.09936049 16.05444384 -50.04663086 9.22143555 C-44.0663227 6.72293039 -38.0601287 5.00441773 -31.75 3.5625 C-30.86892578 3.35044922 -29.98785156 3.13839844 -29.08007812 2.91992188 C-19.35583481 0.6449513 -9.97380473 0.04838717 0 0 Z " fill="#DD0D03" transform="translate(684.3125,431.75)"/>
<path d="M0 0 C2.265625 0.953125 2.265625 0.953125 4.25 2.25 C4.91515625 2.66765625 5.5803125 3.0853125 6.265625 3.515625 C9.09293477 5.93539462 9.88545115 8.24725041 10.4375 11.875 C9.85984127 16.00113377 8.05127677 18.3117932 5 21 C1.88659958 22.75506635 -1.37165682 24.05209249 -4.6875 25.375 C-12.42440132 28.66658863 -18.9685231 32.00338713 -25 38 C-25.69996094 38.68578125 -26.39992188 39.3715625 -27.12109375 40.078125 C-36.59001276 50.03033477 -44.80610214 64.22197165 -45.625 78.1875 C-45.33545071 83.98813745 -42.68792675 88.9505376 -40 94 C-39.79246094 93.26136719 -39.58492188 92.52273438 -39.37109375 91.76171875 C-35.4577468 78.87550933 -29.30883922 69.59943513 -18.125 62.0625 C-16 61 -16 61 -14 61 C-14.31182069 62.41681634 -14.62448737 63.83344651 -14.9375 65.25 C-15.11152344 66.03890625 -15.28554688 66.8278125 -15.46484375 67.640625 C-16 70 -16 70 -16.5625 71.8125 C-17.2221039 75.11051948 -17.10363261 78.40243804 -17.0625 81.75 C-17.05798828 82.44738281 -17.05347656 83.14476562 -17.04882812 83.86328125 C-17.0371002 85.57555803 -17.01916653 87.28779033 -17 89 C-16.59910156 88.41992188 -16.19820313 87.83984375 -15.78515625 87.2421875 C-10.48504582 79.95904256 -4.5772481 74.9875808 4 72 C7.3125 71.875 7.3125 71.875 10 72 C9.60167969 72.60585938 9.20335937 73.21171875 8.79296875 73.8359375 C8.26316406 74.67382812 7.73335938 75.51171875 7.1875 76.375 C6.66542969 77.18710937 6.14335937 77.99921875 5.60546875 78.8359375 C1.03749555 87.83851243 0.60401111 96.13891662 0.8125 106.125 C0.82603516 107.36765625 0.83957031 108.6103125 0.85351562 109.890625 C0.88855705 112.92754831 0.93768567 115.96353467 1 119 C1.99902344 119.11214844 2.99804688 119.22429687 4.02734375 119.33984375 C8.05039195 119.92062525 11.77187222 121.12151644 15.5625 122.5625 C16.25504883 122.82571045 16.94759766 123.0889209 17.66113281 123.36010742 C29.61038399 128.06809057 40.01532152 134.95112653 50 143 C50.556875 143.44859375 51.11375 143.8971875 51.6875 144.359375 C65.87894002 155.88992002 77.55150036 169.00275114 88 184 C88.49258301 184.69915527 88.98516602 185.39831055 89.49267578 186.11865234 C90.19432861 187.16400146 90.19432861 187.16400146 90.91015625 188.23046875 C91.33562744 188.85719482 91.76109863 189.4839209 92.19946289 190.12963867 C93.21977381 192.5134758 92.87921215 193.60330299 92 196 C91.67 196.66 91.34 197.32 91 198 C90.37956737 203.00777762 90.10357355 206.76082226 93.125 210.9375 C95.94348308 213.09114589 95.94348308 213.09114589 99.1875 214.5 C102 216 102 216 103.375 218.5 C104 221 104 221 104 224 C102.9378125 223.84273437 101.875625 223.68546875 100.78125 223.5234375 C84.88380398 221.56070361 68.81278223 221.52553889 54 228 C53.38737305 228.26232422 52.77474609 228.52464844 52.14355469 228.79492188 C37.5936971 235.13151782 24.52396866 245.50371629 16 259 C15.34 259 14.68 259 14 259 C13.81937012 258.31711914 13.63874023 257.63423828 13.45263672 256.93066406 C10.34459805 245.20925479 7.22658003 233.49344839 3.75 221.875 C3.51651855 221.0902832 3.28303711 220.30556641 3.04248047 219.49707031 C-6.79986413 187.00818727 -23.69397421 152.26864857 -47.9375 128.1953125 C-50 126 -50 126 -50 124 C-59.94539194 129.53426066 -67.89970704 136.04553883 -76 144 C-78 143 -78 143 -79.625 139.625 C-84.41246302 129.82293156 -91.25464625 122.41420641 -99.36328125 115.3125 C-101.32252092 113.59417425 -103.19376442 111.87404647 -105 110 C-93.82884581 109.39796175 -85.18349409 109.8233905 -75 115 C-74.505 115.495 -74.505 115.495 -74 116 C-74.50548175 109.42873729 -77.21132757 103.52529781 -82.109375 99.08984375 C-84.03288516 97.64721113 -85.96868319 96.28532453 -88 95 C-86 93 -86 93 -83.86328125 92.734375 C-74.31953971 92.7928359 -67.35934706 95.59326171 -59 100 C-59.04640625 98.83726562 -59.0928125 97.67453125 -59.140625 96.4765625 C-60.00927719 65.00615585 -47.20618107 38.69370376 -26 16 C-25.27941406 15.19820313 -24.55882812 14.39640625 -23.81640625 13.5703125 C-17.75676668 7.09493882 -9.39201851 -1.16450903 0 0 Z " fill="#FD8C01" transform="translate(368,367)"/>
<path d="M0 0 C19.62285982 -0.77754565 37.75555802 1.12664833 57 5 C58.31097656 5.25571777 58.31097656 5.25571777 59.6484375 5.51660156 C90.10817755 11.5547066 121.95764239 25.73302827 147 44 C147.60618164 44.43924805 148.21236328 44.87849609 148.83691406 45.33105469 C160.88533805 54.09300556 172.67957472 63.21515559 183 74 C183.763125 74.76183594 184.52625 75.52367187 185.3125 76.30859375 C205.28271452 96.30783474 221.16952518 119.30835545 233 145 C233.32033203 145.6904541 233.64066406 146.3809082 233.97070312 147.09228516 C247.62296486 176.91419884 256.24510954 209.11206156 256.09765625 242.0078125 C256.09553383 243.81776199 256.09553383 243.81776199 256.09336853 245.66427612 C256.08781082 249.48454359 256.07526628 253.30475052 256.0625 257.125 C256.05747953 259.72916581 256.05291758 262.33333256 256.04882812 264.9375 C256.03785527 271.29168701 256.02115974 277.64583918 256 284 C255.34 284 254.68 284 254 284 C253.67128906 282.7625 253.67128906 282.7625 253.3359375 281.5 C244.34896222 248.76695182 226.16768682 204.8821546 199.51318359 182.76635742 C197.27898597 180.15835165 196.60975453 177.38573773 195.58203125 174.12109375 C195.13229181 172.71941447 194.68233217 171.31780583 194.23217773 169.91625977 C193.8849617 168.81859787 193.8849617 168.81859787 193.5307312 167.69876099 C189.42951818 154.78660543 185.19078846 142.08608088 179 130 C178.62552734 129.26861816 178.25105469 128.53723633 177.86523438 127.78369141 C169.86451095 112.39441121 160.34980817 98.12896728 149 85 C148.29488281 84.17242187 147.58976563 83.34484375 146.86328125 82.4921875 C139.21225522 73.7285347 130.74026283 65.41971868 121 59 C121.63615234 59.61875 121.63615234 59.61875 122.28515625 60.25 C149.20653402 86.75720273 173.67924883 123.48115024 181 161 C177.43103848 158.01372607 173.98168657 155.03656017 170.75 151.6875 C166.64730295 147.53034237 162.15061837 143.92115207 157.58935547 140.28173828 C155.93066967 138.94408844 154.2947612 137.5817886 152.66015625 136.21484375 C140.15878104 125.85315688 126.62339907 117.05461168 112.5 109.0625 C111.85393799 108.6922168 111.20787598 108.32193359 110.54223633 107.94042969 C107.53950522 106.25806757 104.74423683 104.90906198 101.484375 103.75 C98.03694953 102.48427857 95.71393223 101.48889639 93 99 C90.76468671 94.07260959 90.21535727 88.57476336 89.40087891 83.27148438 C85.38927071 60.54066667 67.63589227 37.90707331 49.28808594 24.72607422 C33.98281654 14.11065618 17.6839497 6.75496625 0 1 C0 0.67 0 0.34 0 0 Z " fill="#73AA0C" transform="translate(553,206)"/>
<path d="M0 0 C-2.56398578 2.56398578 -5.4205354 3.3911249 -8.75 4.625 C-21.96087344 9.74894754 -33.08025759 17.0735439 -44 26 C-44.78890625 26.61101562 -45.5778125 27.22203125 -46.390625 27.8515625 C-63.22008994 41.59360761 -75.22401782 64.01979257 -80 85 C-80.061875 86.2890625 -80.12375 87.578125 -80.1875 88.90625 C-80.47423353 93.314778 -80.9115664 96.07930242 -83 100 C-88.62225519 104.62886489 -95.53432792 107.46515295 -102.07275391 110.55712891 C-106.45934916 112.7193289 -110.5726627 115.23898661 -114.6875 117.875 C-115.45255859 118.36363525 -116.21761719 118.85227051 -117.00585938 119.35571289 C-130.17611731 127.89779573 -142.62759063 137.17191108 -154 148 C-158.93513776 152.40731554 -163.9690661 156.70274396 -169 161 C-168.45248581 155.0774989 -167.22286991 149.99205349 -165.125 144.4375 C-164.82037842 143.62667969 -164.51575684 142.81585938 -164.2019043 141.98046875 C-155.36517794 119.08087849 -143.54902788 97.99896844 -128 79 C-127.55269531 78.45118164 -127.10539062 77.90236328 -126.64453125 77.33691406 C-120.7848644 70.17646683 -114.6977307 63.40005378 -108 57 C-113.14811627 60.61463483 -117.64206703 64.50188319 -122.015625 69.01953125 C-123.85164812 70.85194015 -125.7461368 72.48133535 -127.75 74.125 C-153.54215066 96.48492709 -173.64695213 134.15249167 -182.43847656 166.76733398 C-185.54131634 178.17148366 -189.64734923 185.56046874 -197.51416016 194.27587891 C-213.17374402 212.44675982 -224.32279577 236.03001262 -233.8125 257.875 C-234.18592529 258.73085693 -234.55935059 259.58671387 -234.9440918 260.46850586 C-237.08494273 265.49233698 -238.85236702 270.50633304 -240.32617188 275.765625 C-241.2942491 278.97571295 -242.60863658 281.95225156 -244 285 C-244.33 285 -244.66 285 -245 285 C-245.07746202 277.87320099 -245.1291759 270.74651425 -245.16479492 263.61938477 C-245.17967796 261.20593207 -245.19999085 258.79250538 -245.22631836 256.37915039 C-245.43838432 236.40752644 -244.19339561 216.96267629 -239.75 197.4375 C-239.54383057 196.51042236 -239.33766113 195.58334473 -239.12524414 194.62817383 C-226.53562196 140.10687616 -195.62492013 88.3131856 -151 54 C-150.47132324 53.58959473 -149.94264648 53.17918945 -149.39794922 52.75634766 C-107.62258667 20.50678579 -53.50779056 -2.32081983 0 0 Z " fill="#75AB0E" transform="translate(460,205)"/>
<path d="M0 0 C0.09498779 0.65895264 0.18997559 1.31790527 0.2878418 1.99682617 C2.78459955 20.02100972 2.78459955 20.02100972 9 37 C9.51433594 38.05445313 10.02867187 39.10890625 10.55859375 40.1953125 C15.00183428 48.54819423 20.19090641 53.37685804 28.4375 57.875 C44.16901089 66.59454414 53.48648505 84.54838188 58.68457031 101.19189453 C65.0635303 123.76322223 63.42823519 147.70312367 57 170 C56.68933594 171.21429687 56.37867188 172.42859375 56.05859375 173.6796875 C53.59889253 182.70226867 49.41968188 190.80778121 45 199 C44.40832031 200.09957031 43.81664062 201.19914063 43.20703125 202.33203125 C39.40168415 209.11547609 35.09325752 215.12921261 30 221 C29.57090332 221.50144531 29.14180664 222.00289062 28.69970703 222.51953125 C7.82562568 246.7461389 -19.94433176 261.10684046 -51 268 C-53.86669922 268.09399414 -53.86669922 268.09399414 -56 268 C-53.94978988 265.24010176 -52.01842031 263.0145649 -49.3125 260.875 C-33.26156768 247.88906983 -21.92014296 226.06540434 -15 207 C-14.77038574 206.37158203 -14.54077148 205.74316406 -14.30419922 205.09570312 C-8.19639462 188.17372269 -5.86406191 171.97758698 -5.5703125 154.11132812 C-5.39245148 147.96400649 -4.72525745 143.60119019 -2 138 C-0.9932539 134.74058025 -0.18455286 131.43817005 0.625 128.125 C0.8415625 127.27808594 1.058125 126.43117188 1.28125 125.55859375 C3.36060087 117.17701278 4.19516901 108.99880594 4.1875 100.375 C4.18814453 99.59866211 4.18878906 98.82232422 4.18945312 98.02246094 C4.13311494 91.75611794 3.39679458 85.79111598 2.4296875 79.59765625 C1.98771745 75.89716157 2.00456203 72.40903335 2.125 68.6875 C2.25241625 58.36678404 -2.25175641 51.20535938 -7.51171875 42.56640625 C-9 40 -9 40 -10 37 C-10.66 37 -11.32 37 -12 37 C-11.68546875 37.73863281 -11.3709375 38.47726562 -11.046875 39.23828125 C-2.31578806 59.93516505 -2.31578806 59.93516505 -1.5 68.40625 C-1.4175 69.23253906 -1.335 70.05882812 -1.25 70.91015625 C-1.08333333 72.63671875 -0.91666667 74.36328125 -0.75 76.08984375 C-0.6675 76.91613281 -0.585 77.74242187 -0.5 78.59375 C-0.39171875 79.71813477 -0.39171875 79.71813477 -0.28125 80.86523438 C-0.04438945 82.9946769 -0.04438945 82.9946769 0.51635742 85.00561523 C4.04881623 99.57232698 1.22723088 119.9330009 -6 133 C-7.58356787 130.02707542 -8.80570355 126.96719309 -10.00537109 123.82250977 C-12.07729076 118.40359069 -14.17476466 113.43868797 -17.375 108.5625 C-20.04350818 104.26479735 -20.98919445 101.01191857 -20 96 C-19.23390614 92.93562455 -18.42612277 89.88696685 -17.57373047 86.84545898 C-14.61853437 76.24267687 -13.67606945 65.99564264 -14 55 C-14.99 54.505 -14.99 54.505 -16 54 C-15.97317139 54.65194336 -15.94634277 55.30388672 -15.91870117 55.97558594 C-15.74959794 63.35344873 -16.72831702 70.05989729 -18.3125 77.25 C-18.52583984 78.28640625 -18.73917969 79.3228125 -18.95898438 80.390625 C-20.14007457 85.91883225 -21.54543177 90.9037117 -24 96 C-29.04991693 91.71854869 -33.97687354 87.32282771 -38.86328125 82.85546875 C-40.85953442 80.96657599 -40.85953442 80.96657599 -43 80 C-41.40754884 76.34166625 -39.12785629 73.59964596 -36.5625 70.5625 C-27.94116127 60.35040354 -27.10735598 52.0153257 -28 39 C-28.93755666 33.7733062 -31.25308582 29.48768178 -33.6875 24.8125 C-37.15899528 17.92275324 -37.15899528 17.92275324 -36 14 C-30.87261209 9.00164011 -24.86676484 6.44520623 -18.1875 4.1875 C-17.34251953 3.88908203 -16.49753906 3.59066406 -15.62695312 3.28320312 C-10.23214055 1.38494898 -5.79273703 -0.12872749 0 0 Z " fill="#F1AA01" transform="translate(639,535)"/>
<path d="M0 0 C-0.02094727 0.64211426 -0.04189453 1.28422852 -0.06347656 1.94580078 C-0.94758623 33.45479768 6.7161701 61.81186337 19.66308594 90.41870117 C21.24041882 93.92994921 22 96.07653382 22 100 C21.26136719 100.27972656 20.52273438 100.55945313 19.76171875 100.84765625 C1.23132277 108.17034132 -12.29732417 119.64443475 -20.3828125 138.16796875 C-25.25820529 152.43616373 -24.16778589 168.63273407 -20.65625 183.1015625 C-20 186 -20 186 -20 190 C-22.31 190 -24.62 190 -27 190 C-27.9092678 183.79634307 -28.76023467 177.58743503 -29.56347656 171.36914062 C-29.84785671 169.17426028 -30.13855821 166.98018678 -30.43652344 164.78710938 C-32.72577198 147.56323935 -33.29341045 130.54371775 -33.3125 113.1875 C-33.31599457 112.16319885 -33.31948914 111.13889771 -33.3230896 110.08355713 C-33.34681602 97.56178309 -32.81170315 85.39839512 -31 73 C-30.81119229 71.6773863 -30.62278236 70.35471574 -30.43481445 69.03198242 C-30.29132568 68.03142822 -30.14783691 67.03087402 -30 66 C-30.78803917 68.57903727 -31.55477717 71.16201831 -32.3125 73.75 C-32.52583984 74.4409375 -32.73917969 75.131875 -32.95898438 75.84375 C-37.72222619 92.33736346 -38.47941102 109.13445471 -38.3125 126.1875 C-38.30383584 128.1662589 -38.29537405 130.14501869 -38.28710938 132.1237793 C-38.19223709 146.1520977 -37.57011787 160.05118501 -36 174 C-40.54487402 173.446785 -43.86589228 171.5289111 -47.625 169.0625 C-48.23819092 168.66135986 -48.85138184 168.26021973 -49.4831543 167.84692383 C-67.14920104 155.99844552 -79.86070071 139.17175556 -84.3046875 118.20703125 C-88.47249479 95.33738793 -80.00438288 72.9972114 -67.28833008 54.16040039 C-62.54504686 47.49373048 -57.15973864 41.3950248 -51.47265625 35.52392578 C-49.93622343 33.93400309 -48.42192789 32.32454281 -46.90625 30.71484375 C-36.69836747 20.02919859 -15.49854405 0 0 0 Z " fill="#36801B" transform="translate(532,154)"/>
<path d="M0 0 C3 1 3 1 4.8671875 4.21875 C5.5512588 5.63879815 6.21952752 7.06652656 6.875 8.5 C7.22578613 9.25740479 7.57657227 10.01480957 7.93798828 10.79516602 C11.46343752 18.64597677 13.89200504 26.6708492 16 35 C16.23460937 35.92296875 16.46921875 36.8459375 16.7109375 37.796875 C23.87504755 69.56814566 18.48986262 108.85983832 4.35546875 138.12890625 C3.06279483 140.86699077 1.9122599 143.64350427 0.76635742 146.4453125 C-10.41593505 173.32233948 -31.87789658 206.10642436 -57 222 C-55.71796349 219.40947849 -54.39371706 216.85098643 -53.01171875 214.3125 C-46.13683125 201.59136802 -40.43537449 189.1194895 -37 175 C-36.81518066 174.25669434 -36.63036133 173.51338867 -36.43994141 172.74755859 C-29.22541678 142.82041535 -31.24959914 109.97177998 -47.47119141 83.28100586 C-50.40784187 78.65164309 -53.72885091 74.56404146 -57.56640625 70.63671875 C-59 69 -59 69 -59 67 C-58.24976563 66.78085937 -57.49953125 66.56171875 -56.7265625 66.3359375 C-33.30770109 59.08021973 -22.29031714 41.4520292 -10.625 21.1875 C-10.13733154 20.3409082 -9.64966309 19.49431641 -9.1472168 18.62207031 C-5.73017831 12.56899715 -2.78530003 6.36672533 0 0 Z " fill="#037113" transform="translate(743,528)"/>
<path d="M0 0 C0.66 0 1.32 0 2 0 C2.65161012 1.87300025 3.29602195 3.7485055 3.9375 5.625 C4.47697266 7.19121094 4.47697266 7.19121094 5.02734375 8.7890625 C12.88775079 34.7378761 5.32938036 63.31051852 -6.75 86.5625 C-10.83144469 94.18306455 -15.81442659 101.10125314 -21 108 C-21.43957031 108.76957031 -21.87914062 109.53914062 -22.33203125 110.33203125 C-24.9114391 112.9114391 -27.90884533 112.76431774 -31.375 113 C-49.68832323 114.79940735 -61.68091327 121.83778186 -74 135 C-78.14086657 133.39676662 -80.71586327 130.34495313 -83.6875 127.1875 C-89.49735563 121.23693347 -94.93914167 115.86869254 -103.6875 115.5625 C-107.37755387 115.68063732 -110.53534084 116.76580811 -114 118 C-117.97519043 113.08097944 -121.9088347 108.13679488 -125.73535156 103.10131836 C-129.81491845 97.73408896 -134.02462142 92.56622028 -138.6015625 87.609375 C-140 86 -140 86 -140 85 C-139.15743652 84.94054199 -139.15743652 84.94054199 -138.29785156 84.87988281 C-93.26439048 81.5731662 -52.28290623 67.27670586 -20.8125 33.6875 C-13.07763745 24.66884284 -7.423436 14.32758296 -2.3125 3.66796875 C-1 1 -1 1 0 0 Z " fill="#BD0301" transform="translate(583,434)"/>
<path d="M0 0 C2.58504672 2.36126656 4.25694048 4.88495794 6.0625 7.875 C21.51166668 32.3549948 41.61715986 48.08514796 69.5234375 56.45703125 C84.24499711 59.6846287 101.68662074 59.68919162 116 55 C117.10988281 54.6596875 118.21976563 54.319375 119.36328125 53.96875 C142.56791883 46.32851338 163.13089646 31.20926516 177 11 C178.49796491 14.91244782 177.51378175 18.28578978 176.5 22.1875 C176.31912842 22.88875 176.13825684 23.59 175.9519043 24.3125 C170.56714687 44.16755316 160.93498963 61.92579954 147 77 C146.27167969 77.82113281 145.54335938 78.64226562 144.79296875 79.48828125 C131.44358038 93.82834779 111.5792042 103.1849184 92.0546875 104.38671875 C70.57197334 105.13388989 51.60587223 98.03495238 35.7578125 83.578125 C34.84773438 82.72734375 33.93765625 81.8765625 33 81 C32.33742188 80.41734375 31.67484375 79.8346875 30.9921875 79.234375 C11.72169093 61.48759212 1.19177686 32.30695385 -0.1796875 6.63671875 C-0.18594787 4.42367734 -0.10695794 2.21046409 0 0 Z " fill="#FDB302" transform="translate(414,667)"/>
<path d="M0 0 C4.48534322 0.55039926 7.18633229 2.25986836 10.875 4.8125 C26.33521364 15.10240576 43.20649134 23.61654009 61 29 C62.07121094 29.33233643 62.07121094 29.33233643 63.1640625 29.67138672 C83.75327605 35.77796028 108.25136315 34.90422326 129 30 C129.65838867 29.85014648 130.31677734 29.70029297 130.99511719 29.54589844 C139.7475728 27.53005169 147.80241305 24.6160029 156 21 C158.95148338 19.7333912 161.91200641 18.48939931 164.875 17.25 C165.58897949 16.94408936 166.30295898 16.63817871 167.03857422 16.32299805 C171.02471028 14.65485114 174.6700634 13.51579182 179 13 C177.26376121 24.71438218 167.00819084 33.92492418 159 42 C158.11183594 42.90105469 157.22367188 43.80210937 156.30859375 44.73046875 C137.51388055 62.79692182 113.45224161 70.41871661 87.77807617 70.36914062 C61.94973102 69.85001998 40.42006767 58.13841324 22.48657227 40.10058594 C13.78903952 30.9433672 0.40622913 15.37335096 -0.109375 2.20703125 C-0.07328125 1.47871094 -0.0371875 0.75039063 0 0 Z " fill="#FDAA03" transform="translate(414,650)"/>
<path d="M0 0 C2.265625 0.953125 2.265625 0.953125 4.25 2.25 C4.91515625 2.66765625 5.5803125 3.0853125 6.265625 3.515625 C9.09293477 5.93539462 9.88545115 8.24725041 10.4375 11.875 C9.85984127 16.00113377 8.05127677 18.3117932 5 21 C1.88659958 22.75506635 -1.37165682 24.05209249 -4.6875 25.375 C-12.42440132 28.66658863 -18.9685231 32.00338713 -25 38 C-25.69996094 38.68578125 -26.39992188 39.3715625 -27.12109375 40.078125 C-36.59001276 50.03033477 -44.80610214 64.22197165 -45.625 78.1875 C-45.33545071 83.98813745 -42.68792675 88.9505376 -40 94 C-39.79246094 93.26136719 -39.58492188 92.52273438 -39.37109375 91.76171875 C-35.4577468 78.87550933 -29.30883922 69.59943513 -18.125 62.0625 C-16 61 -16 61 -14 61 C-14.31182069 62.41681634 -14.62448737 63.83344651 -14.9375 65.25 C-15.11152344 66.03890625 -15.28554688 66.8278125 -15.46484375 67.640625 C-16 70 -16 70 -16.5625 71.8125 C-17.2221039 75.11051948 -17.10363261 78.40243804 -17.0625 81.75 C-17.05798828 82.44738281 -17.05347656 83.14476562 -17.04882812 83.86328125 C-17.0371002 85.57555803 -17.01916653 87.28779033 -17 89 C-16.59910156 88.41992188 -16.19820313 87.83984375 -15.78515625 87.2421875 C-10.48504582 79.95904256 -4.5772481 74.9875808 4 72 C7.3125 71.875 7.3125 71.875 10 72 C9.60167969 72.60585938 9.20335937 73.21171875 8.79296875 73.8359375 C8.26316406 74.67382812 7.73335938 75.51171875 7.1875 76.375 C6.66542969 77.18710937 6.14335937 77.99921875 5.60546875 78.8359375 C1.11929724 87.67729742 0.59927397 95.81660275 0.8125 105.625 C0.82603516 106.81996094 0.83957031 108.01492188 0.85351562 109.24609375 C0.88853708 112.164548 0.93765007 115.08202348 1 118 C0.03811768 117.97905273 -0.92376465 117.95810547 -1.91479492 117.93652344 C-5.54712522 117.86310427 -9.17939279 117.81783794 -12.81225586 117.78027344 C-14.37259007 117.76038635 -15.93285209 117.73326648 -17.49291992 117.69824219 C-30.76073129 117.40823538 -42.23245138 119.19827731 -53.9375 125.9375 C-54.92266602 126.49425415 -54.92266602 126.49425415 -55.92773438 127.06225586 C-63.5672736 131.60441239 -69.78183119 137.71381997 -76 144 C-78 143 -78 143 -79.625 139.625 C-84.41246302 129.82293156 -91.25464625 122.41420641 -99.36328125 115.3125 C-101.32252092 113.59417425 -103.19376442 111.87404647 -105 110 C-93.82884581 109.39796175 -85.18349409 109.8233905 -75 115 C-74.505 115.495 -74.505 115.495 -74 116 C-74.50548175 109.42873729 -77.21132757 103.52529781 -82.109375 99.08984375 C-84.03288516 97.64721113 -85.96868319 96.28532453 -88 95 C-86 93 -86 93 -83.86328125 92.734375 C-74.31953971 92.7928359 -67.35934706 95.59326171 -59 100 C-59.04640625 98.83726562 -59.0928125 97.67453125 -59.140625 96.4765625 C-60.00927719 65.00615585 -47.20618107 38.69370376 -26 16 C-25.27941406 15.19820313 -24.55882812 14.39640625 -23.81640625 13.5703125 C-17.75676668 7.09493882 -9.39201851 -1.16450903 0 0 Z " fill="#327B0F" transform="translate(368,367)"/>
<path d="M0 0 C0.66 0 1.32 0 2 0 C3.11942269 41.66740017 -10.74531495 79.01353718 -39.05078125 109.98828125 C-42.19139967 113.22960086 -45.48998576 116.1649885 -49 119 C-50.29164063 120.04800781 -50.29164063 120.04800781 -51.609375 121.1171875 C-62.2876019 129.45774851 -73.83665197 135.87496437 -86.3125 141.125 C-87.03590576 141.43260254 -87.75931152 141.74020508 -88.50463867 142.05712891 C-93.62722901 144.124257 -93.62722901 144.124257 -97 143 C-96.78384033 142.46221924 -96.56768066 141.92443848 -96.3449707 141.37036133 C-95.69944601 139.76332202 -95.05518882 138.15577327 -94.41186523 136.54785156 C-93.67425766 134.71259613 -92.93019029 132.87992474 -92.17993164 131.04980469 C-89.77337476 125.14279648 -89.77337476 125.14279648 -87.8828125 119.05859375 C-86.42202989 113.94585463 -85.33324167 110.93343645 -80.88671875 107.8203125 C-78.35109615 106.44060558 -75.7509408 105.23256741 -73.12890625 104.02734375 C-58.12842556 97.03327639 -43.72494304 83.95990886 -35 70 C-35.55945313 70.73863281 -36.11890625 71.47726562 -36.6953125 72.23828125 C-46.83029435 84.38308154 -65.93877047 97.97959016 -81 103 C-80.45828975 94.90365516 -79.16800058 87.12241706 -77.5 79.1875 C-77.05129495 77.01448556 -76.60335315 74.84131335 -76.15625 72.66796875 C-75.95837891 71.72203857 -75.76050781 70.7761084 -75.55664062 69.80151367 C-74.97540794 66.87623075 -74.47596482 63.9440815 -74 61 C-73.44763672 60.89042969 -72.89527344 60.78085937 -72.32617188 60.66796875 C-59.4827447 58.0503357 -48.34397985 54.60203908 -37 48 C-36.13117187 47.4946875 -35.26234375 46.989375 -34.3671875 46.46875 C-17.53674693 35.91307299 -5.04162692 19.21663594 0 0 Z " fill="#76AB10" transform="translate(892,551)"/>
<path d="M0 0 C0.66 0 1.32 0 2 0 C2.46148437 1.20914063 2.92296875 2.41828125 3.3984375 3.6640625 C12.2807391 26.22834689 25.70884297 42.80763809 48.0390625 53.171875 C48.68617188 53.44515625 49.33328125 53.7184375 50 54 C50.79148438 54.33515625 51.58296875 54.6703125 52.3984375 55.015625 C60.08970633 58.03800044 67.89035784 59.55536739 76 61 C76.14099121 61.80107178 76.28198242 62.60214355 76.42724609 63.42749023 C77.07444376 67.09785899 77.72469839 70.76767997 78.375 74.4375 C78.59671875 75.69755859 78.8184375 76.95761719 79.046875 78.25585938 C79.99255297 83.58225147 80.93916142 88.89005717 82.1640625 94.16015625 C83 98 83 98 83 102 C67.74911468 97.41551937 54.5185944 86.51731203 43.05859375 75.84765625 C40.93638507 73.85434369 40.93638507 73.85434369 38 72 C49.67721292 84.79330544 60.74526581 95.65661113 75.73046875 104.51953125 C76.45194092 104.95467041 77.17341309 105.38980957 77.91674805 105.83813477 C80.21086467 107.17942697 80.21086467 107.17942697 83.71875 108.453125 C89.32651529 111.65007531 90.47238607 119.17441057 92.3125 124.9375 C92.74309679 126.22669738 93.17602063 127.51511997 93.61132812 128.80273438 C94.40806573 131.17305983 95.19418116 133.5470019 95.96606445 135.92553711 C96.8868685 138.66359742 97.89649324 141.33124865 99 144 C92.37280017 142.74459824 86.74151505 140.82298801 80.6875 137.875 C79.44202393 137.27341064 79.44202393 137.27341064 78.17138672 136.65966797 C44.75101988 120.18666973 19.97413926 89.93398255 7.59765625 55.13671875 C1.38922323 36.84619947 -0.68205109 19.27581304 0 0 Z " fill="#75AA0E" transform="translate(130,551)"/>
<path d="M0 0 C2.06834265 3.10251397 3.30203337 6.01716619 4.6875 9.4765625 C5.22087755 10.7930829 5.75517438 12.10923116 6.2902832 13.42504883 C6.56909332 14.11160553 6.84790344 14.79816223 7.13516235 15.50552368 C13.87999088 32.03522078 21.08768763 47.4728555 33 61 C33.70769531 61.82757812 34.41539062 62.65515625 35.14453125 63.5078125 C51.50519874 82.24665057 72.64414516 96.31227436 97 102 C97.6396167 102.17515137 98.2792334 102.35030273 98.93823242 102.53076172 C115.722697 106.83979293 135.58083513 105.2629354 152 100 C152.77633789 99.75330566 153.55267578 99.50661133 154.35253906 99.25244141 C175.23296983 92.43596411 191.96858867 82.09935253 208 67 C208.71414063 66.36191406 209.42828125 65.72382812 210.1640625 65.06640625 C221.10258724 54.8637459 229.43731928 41.71339644 236.51171875 28.625 C238 26 238 26 240 24 C240.64767793 21.42938689 240.64767793 21.42938689 241 19 C241.33 19 241.66 19 242 19 C240.99807365 31.42388679 236.70165721 41.21295779 230.98144531 52.12255859 C230.12664597 53.75773446 229.29200273 55.4034159 228.4609375 57.05078125 C222.64545877 68.27562986 214.64177985 77.84454792 206 87 C205.30390625 87.76054688 204.6078125 88.52109375 203.890625 89.3046875 C191.65030017 102.2151031 175.80421101 110.36464591 159.25 116.375 C158.60192383 116.61371826 157.95384766 116.85243652 157.28613281 117.09838867 C146.24858953 120.90372622 134.96029811 121.40727055 123.375 121.375 C122.67234009 121.37478851 121.96968018 121.37457703 121.24572754 121.37435913 C105.31476095 121.32658163 91.48640086 118.95191891 77 112 C75.34097656 111.24589844 75.34097656 111.24589844 73.6484375 110.4765625 C57.93989354 103.05767145 43.98453123 92.50707494 33 79 C32.22785156 78.06542969 31.45570313 77.13085938 30.66015625 76.16796875 C13.72524172 55.23283664 0.52953255 27.24685687 0 0 Z " fill="#A50303" transform="translate(378,697)"/>
<path d="M0 0 C1.64258789 -0.00193359 1.64258789 -0.00193359 3.31835938 -0.00390625 C4.44693359 -0.00003906 5.57550781 0.00382812 6.73828125 0.0078125 C7.87845703 0.00394531 9.01863281 0.00007813 10.19335938 -0.00390625 C11.83014648 -0.00197266 11.83014648 -0.00197266 13.5 0 C14.49346436 0.00112793 15.48692871 0.00225586 16.51049805 0.00341797 C19.05078125 0.1328125 19.05078125 0.1328125 22.05078125 1.1328125 C20.7767524 4.44645633 19.34052636 7.5619865 17.67578125 10.6953125 C13.68268956 18.66982017 11.31441981 26.89525562 9.29785156 35.55200195 C6.19088235 48.75418237 2.10677967 59.49694602 -8.94921875 68.1328125 C-21.57528577 75.61492629 -35.55788048 77.34549238 -49.94921875 77.1328125 C-47.23784468 57.57630593 -33.67051731 41.35716263 -19.94921875 28.1328125 C-34.22715112 38.30284813 -46.24040322 50.21379506 -53.94921875 66.1328125 C-56.51969698 62.27709516 -56.29348195 59.04302493 -56.26171875 54.5703125 C-56.2560791 53.75618896 -56.25043945 52.94206543 -56.24462891 52.10327148 C-56.12170785 46.00407459 -55.46299556 40.74787718 -52.94921875 35.1328125 C-52.58183594 34.26785156 -52.21445312 33.40289062 -51.8359375 32.51171875 C-44.34979208 16.94318624 -30.71530835 8.08320867 -15.02734375 2.11328125 C-10.01928054 0.5180733 -5.24105899 0.00593024 0 0 Z " fill="#36801B" transform="translate(570.94921875,256.8671875)"/>
<path d="M0 0 C9.98332727 -0.26228774 9.98332727 -0.26228774 14.109375 2.3203125 C28.48762655 17.55598272 32.65154195 43.15520532 32.1875 63.12109375 C30.72739509 93.32701406 16.17677228 120.93767304 -4.75 142.125 C-5.48323486 142.87217285 -6.21646973 143.6193457 -6.97192383 144.38916016 C-8.02996216 145.43789307 -8.02996216 145.43789307 -9.109375 146.5078125 C-9.73811523 147.13316895 -10.36685547 147.75852539 -11.01464844 148.40283203 C-13.22884257 150.18409839 -15.32684329 151.07405368 -18 152 C-15.27959778 141.67790648 -15.27959778 141.67790648 -13.5 136.6875 C-8.74655181 122.7774095 -7.80959869 108.66505632 -7.5703125 94.11132812 C-7.39245148 87.96400649 -6.72525745 83.60119019 -4 78 C-2.9932539 74.74058025 -2.18455286 71.43817005 -1.375 68.125 C-1.1584375 67.27808594 -0.941875 66.43117188 -0.71875 65.55859375 C1.36060045 57.17701446 2.19516731 48.99880263 2.1875 40.375 C2.18814453 39.59721191 2.18878906 38.81942383 2.18945312 38.01806641 C2.13394024 31.83468802 1.38561105 25.88147184 0.4453125 19.76953125 C-0.33185348 13.19088937 -0.15641403 6.61283748 0 0 Z " fill="#FDD30E" transform="translate(641,595)"/>
<path d="M0 0 C2.56870444 2.46595627 4.93021817 5.05331998 7.25 7.75 C29.83777996 33.52384576 58.620945 43.62832099 92 48 C92.11480713 48.55647217 92.22961426 49.11294434 92.34790039 49.6862793 C96.29911898 68.56603944 101.18096598 86.66331704 110.30078125 103.75 C111.72157407 106.46747041 112.92959061 109.13108548 114 112 C107.83984225 111.45743868 102.77077755 109.52445135 97.125 107.0625 C96.20533447 106.66353516 95.28566895 106.26457031 94.33813477 105.85351562 C73.35996858 96.53230228 56.13652549 83.19013521 40 67 C39.17435547 66.2265625 39.17435547 66.2265625 38.33203125 65.4375 C21.59071899 49.59996038 6.81829306 25.02488088 0 3 C0 2.01 0 1.02 0 0 Z " fill="#FD8F02" transform="translate(275,655)"/>
<path d="M0 0 C0.33 0 0.66 0 1 0 C1.00257813 1.12792969 1.00515625 2.25585938 1.0078125 3.41796875 C1.44275719 27.21711879 8.54380513 47.67791109 25.50878906 64.59423828 C27.64982452 66.61258834 29.94955779 68.41762884 32.25 70.25 C35.80389229 73.3154731 35.80389229 73.3154731 36.62109375 76.16796875 C36.75254466 80.66049697 35.66051779 84.9791037 34.578125 89.31640625 C33.32473297 95.13451654 32.73118084 101.09610365 32 107 C31.34 107 30.68 107 30 107 C19.18384074 95.79509929 11.63828963 81.93856936 5 68 C4.33681461 66.6649317 3.67185469 65.33072668 3 64 C8.04332458 80.67735742 15.05533305 101.21214403 29.6328125 112.23461914 C31.79851485 115.03108229 31.3355285 117.5985059 31.29296875 121.07421875 C31.28872391 121.7580513 31.28447906 122.44188385 31.28010559 123.1464386 C31.26333353 125.32719561 31.22568657 127.50702309 31.1875 129.6875 C31.17245114 131.16730435 31.15876308 132.6471232 31.14648438 134.12695312 C31.11343569 137.75160336 31.06166446 141.37571094 31 145 C12.11820652 136.08206105 -0.67622406 112.46721373 -7.68359375 93.75 C-18.31139377 63.47496136 -16.06534069 32.61923355 -2.89794922 3.65380859 C-2 2 -2 2 0 0 Z " fill="#74A90F" transform="translate(173,440)"/>
<path d="M0 0 C9.09188407 8.07296603 11.51020629 22.57248526 14 34 C14.17724609 34.76344727 14.35449219 35.52689453 14.53710938 36.31347656 C15.49439765 41.86938381 15.18470408 47.56490026 15.1875 53.1875 C15.19974609 54.46431641 15.21199219 55.74113281 15.22460938 57.05664062 C15.2358188 64.32408256 14.71987397 70.94651222 13 78 C12.76539063 79.22847656 12.53078125 80.45695313 12.2890625 81.72265625 C10.90765426 88.67032709 9.2567017 94.7232755 6 101 C5.36437012 102.29025957 4.7289767 103.58063564 4.09375 104.87109375 C-3.84536754 120.70623024 -13.96394892 135.14306182 -29 145 C-29.36929694 140.77057008 -29.67349814 136.54254565 -29.92163086 132.3046875 C-30.01446503 130.86825167 -30.12410583 129.43278893 -30.25170898 127.99902344 C-31.29322531 116.09835079 -31.29322531 116.09835079 -28.15258789 111.00244141 C-25.87690474 108.51778373 -23.49106377 106.26566289 -21 104 C-11.9280437 92.54146939 -5.8370708 78.99402293 -2 65 C-3.39831952 66.39831952 -3.91903984 67.94978248 -4.71484375 69.76171875 C-10.74821946 83.19918896 -17.95167744 96.89329584 -29 107 C-29.66 107 -30.32 107 -31 107 C-31.67387598 102.62607891 -32.33782758 98.25070694 -33 93.875 C-33.19078125 92.6375 -33.3815625 91.4 -33.578125 90.125 C-33.75859375 88.92617188 -33.9390625 87.72734375 -34.125 86.4921875 C-34.29257812 85.39245605 -34.46015625 84.29272461 -34.6328125 83.15966797 C-35.5969468 74.86324104 -35.5969468 74.86324104 -33.75 72.19238281 C-33.1725 71.70092773 -32.595 71.20947266 -32 70.703125 C-31.36376709 70.14222168 -30.72753418 69.58131836 -30.07202148 69.00341797 C-29.04637085 68.13547607 -29.04637085 68.13547607 -28 67.25 C-26.61161193 66.0125908 -25.22746809 64.77040272 -23.84765625 63.5234375 C-23.18008301 62.92112305 -22.51250977 62.31880859 -21.82470703 61.69824219 C-7.4088077 48.28146459 -0.92585901 29.22829278 -0.1875 10 C-0.09032084 6.66650975 -0.02351705 3.3348093 0 0 Z " fill="#76AB10" transform="translate(850,440)"/>
<path d="M0 0 C3 1 3 1 4.8671875 4.21875 C5.55126381 5.63879573 6.21953861 7.06652148 6.875 8.5 C7.22506104 9.25595459 7.57512207 10.01190918 7.93579102 10.79077148 C12.57646059 21.1267597 15.80621165 31.7281247 17 43 C15.68 43 14.36 43 13 43 C12.74347656 43.72832031 12.48695313 44.45664062 12.22265625 45.20703125 C4.4196286 63.03183882 -16.4980365 79.70602378 -32 91 C-33.11181641 91.87785156 -33.11181641 91.87785156 -34.24609375 92.7734375 C-36 94 -36 94 -38 94 C-38.66 95.32 -39.32 96.64 -40 98 C-40.4125 97.11699219 -40.825 96.23398437 -41.25 95.32421875 C-45.49427122 86.43252653 -50.09854062 77.77314892 -57.23828125 70.8203125 C-59 69 -59 69 -59 67 C-58.24976563 66.78085937 -57.49953125 66.56171875 -56.7265625 66.3359375 C-33.30770109 59.08021973 -22.29031714 41.4520292 -10.625 21.1875 C-10.13733154 20.3409082 -9.64966309 19.49431641 -9.1472168 18.62207031 C-5.73017831 12.56899715 -2.78530003 6.36672533 0 0 Z " fill="#0C9B28" transform="translate(743,528)"/>
<path d="M0 0 C5.62644047 2.92142102 7.9478603 6.07349291 10.0546875 11.93359375 C14.75761486 28.95952181 11.55495295 51.53293227 3.75 67.25 C0.6601676 72.39752929 -2.58573306 77.14775217 -8 80 C-12.3557156 80.9703688 -15.72545487 80.53814128 -19.8125 78.8125 C-26.41433632 73.34240705 -29.34544146 66.23588728 -30.23632812 57.74853516 C-30.99124366 45.92550673 -29.56289124 35.2519249 -26 24 C-25.773125 23.19175781 -25.54625 22.38351562 -25.3125 21.55078125 C-22.64624867 13.0687692 -16.02475415 6.18979198 -9 1 C-5.89046621 -0.5547669 -3.43733239 -0.28644437 0 0 Z " fill="#FDD30E" transform="translate(307,524)"/>
<path d="M0 0 C0.74378906 0.44988281 1.48757813 0.89976562 2.25390625 1.36328125 C16.30301159 9.64014496 31.02143178 17.28000519 46.5 22.5 C47.14356445 22.71865723 47.78712891 22.93731445 48.45019531 23.16259766 C60.66312335 27.02524863 72.5344945 28.51312324 85.3125 28.375 C86.32123169 28.36901794 86.32123169 28.36901794 87.3503418 28.36291504 C98.16636825 28.28799052 108.46967733 27.48898536 119 25 C119.65838867 24.85014648 120.31677734 24.70029297 120.99511719 24.54589844 C129.73938966 22.53193642 137.81024725 19.62085303 146 16 C147.87109863 15.2197443 149.74589867 14.44828065 151.625 13.6875 C152.42164063 13.36136719 153.21828125 13.03523437 154.0390625 12.69921875 C156 12 156 12 158 12 C157.67 12.99 157.34 13.98 157 15 C156.34 15 155.68 15 155 15 C154.7834375 15.56074219 154.566875 16.12148438 154.34375 16.69921875 C151.3373735 21.84676456 145.66162388 25.34800273 141 29 C140.19046875 29.63550781 139.3809375 30.27101563 138.546875 30.92578125 C131.27031148 36.30895325 123.17863486 40.19071479 115 44 C113.845 44.53882813 112.69 45.07765625 111.5 45.6328125 C107.6643556 47.1311111 104.23896191 47.88983941 100.1875 48.625 C95.4605071 49.37454705 95.4605071 49.37454705 91 51 C65.9859276 52.31653013 43.18274568 45.99740529 23.859375 29.578125 C15.06475749 21.64855184 5.9727908 13.3576493 0 3 C0 2.01 0 1.02 0 0 Z " fill="#FDD20E" transform="translate(424,655)"/>
<path d="M0 0 C0.66 0 1.32 0 2 0 C7.12282584 9.23512165 10.32147213 17.48122532 12 28 C12.37769531 27.52691406 12.75539063 27.05382812 13.14453125 26.56640625 C18.40655492 20.2445839 25.04317858 12.65227381 33 10 C33.66259014 22.46651083 30.7029928 32.04414395 25 43 C25.76143311 42.84853516 26.52286621 42.69707031 27.30737305 42.54101562 C30.76646718 41.85578555 34.22694684 41.17782142 37.6875 40.5 C38.88568359 40.26152344 40.08386719 40.02304687 41.31835938 39.77734375 C42.47529297 39.55175781 43.63222656 39.32617188 44.82421875 39.09375 C45.88729248 38.88427734 46.95036621 38.67480469 48.0456543 38.45898438 C50.75880423 38.03747195 53.26112659 37.91143497 56 38 C54.5292807 41.68487911 52.62543643 43.28608045 49.375 45.5 C48.55773437 46.0671875 47.74046875 46.634375 46.8984375 47.21875 C37.97569894 52.70226588 29.62127349 54.47598798 19.4375 56.1875 C17.9431624 56.44874556 16.44901946 56.7111072 14.95507812 56.97460938 C4.46307427 58.81070823 -5.59343856 60.19931481 -16.25 60.25 C-17.31863281 60.270625 -18.38726563 60.29125 -19.48828125 60.3125 C-28.14166746 60.35455777 -37.94529113 59.59511393 -45 54 C-45 53.34 -45 52.68 -45 52 C-34.44 50.68 -23.88 49.36 -13 48 C-17.455 43.545 -17.455 43.545 -22 39 C-26.26077057 33.46597745 -29.62305397 27.88473016 -31 21 C-26.04231646 22.38712389 -21.13762005 23.88385309 -16.25 25.5 C-15.59128906 25.71269531 -14.93257812 25.92539062 -14.25390625 26.14453125 C-11.15820343 27.16805977 -8.73321251 28.17785833 -6 30 C-5.96132813 28.49373047 -5.96132813 28.49373047 -5.921875 26.95703125 C-5.10612203 5.10612203 -5.10612203 5.10612203 0 0 Z " fill="#75AB10" transform="translate(652,374)"/>
<path d="M0 0 C2.38564077 0.57584432 4.66682784 1.22227595 7 2 C9.22574335 2.22451458 11.45581519 2.40782878 13.6875 2.5625 C14.86699219 2.64628906 16.04648437 2.73007812 17.26171875 2.81640625 C18.61716797 2.90728516 18.61716797 2.90728516 20 3 C20.495 5.475 20.495 5.475 21 8 C20.34 7.67 19.68 7.34 19 7 C19 6.34 19 5.68 19 5 C18.34 5 17.68 5 17 5 C17.31453125 5.73863281 17.6290625 6.47726562 17.953125 7.23828125 C26.68421194 27.93516505 26.68421194 27.93516505 27.5 36.40625 C27.5825 37.23253906 27.665 38.05882812 27.75 38.91015625 C27.91666667 40.63671875 28.08333333 42.36328125 28.25 44.08984375 C28.3325 44.91613281 28.415 45.74242187 28.5 46.59375 C28.60828125 47.71813477 28.60828125 47.71813477 28.71875 48.86523438 C28.95561055 50.9946769 28.95561055 50.9946769 29.51635742 53.00561523 C33.04881623 67.57232698 30.22723088 87.9330009 23 101 C21.41643213 98.02707542 20.19429645 94.96719309 18.99462891 91.82250977 C16.92270924 86.40359069 14.82523534 81.43868797 11.625 76.5625 C8.95649182 72.26479735 8.01080555 69.01191857 9 64 C9.76609386 60.93562455 10.57387723 57.88696685 11.42626953 54.84545898 C14.38146563 44.24267687 15.32393055 33.99564264 15 23 C14.34 22.67 13.68 22.34 13 22 C13.02682861 22.65194336 13.05365723 23.30388672 13.08129883 23.97558594 C13.25040206 31.35344873 12.27168298 38.05989729 10.6875 45.25 C10.47416016 46.28640625 10.26082031 47.3228125 10.04101562 48.390625 C8.85992543 53.91883225 7.45456823 58.9037117 5 64 C-0.04991693 59.71854869 -4.97687354 55.32282771 -9.86328125 50.85546875 C-11.85953442 48.96657599 -11.85953442 48.96657599 -14 48 C-12.40754884 44.34166625 -10.12785629 41.59964596 -7.5625 38.5625 C-0.98245875 30.76834899 1.17762829 25.8359883 1.125 15.6875 C1.12886719 14.95337891 1.13273438 14.21925781 1.13671875 13.46289062 C1.12857638 8.87466297 0.75338955 4.52631661 0 0 Z " fill="#FBCC0F" transform="translate(610,567)"/>
<path d="M0 0 C9.51478975 6.6675068 18.23273498 14.71480083 22 26 C22.62964131 29.80856205 22.78145028 33.20874512 22 37 C19.7984026 39.89683868 18.21405538 41.39297231 15 43 C7.87398844 43.49144907 2.23524006 42.58922567 -3.4453125 38.04296875 C-6.0103456 35.74071427 -8.51161231 33.38470487 -11 31 C-17.91954964 24.63086908 -25.28894985 19.18454656 -33.375 14.375 C-37.98335484 11.50757921 -40.43109137 8.84058675 -42.0625 3.5625 C-42 0 -42 0 -39.875 -3.3125 C-29.14447718 -13.34320612 -11.05513985 -6.82765437 0 0 Z " fill="#FDF9F9" transform="translate(543,404)"/>
<path d="M0 0 C-2.07889692 2.2352351 -4.08825322 3.7272828 -6.7421875 5.21875 C-11.31246086 8.01064996 -14.60492861 11.50531224 -18.125 15.5 C-23.71046075 21.75422989 -28.77631874 27.34521996 -36.625 30.75 C-37.54539062 31.15734375 -38.46578125 31.5646875 -39.4140625 31.984375 C-43.53486155 33.60281572 -47.10658869 34.14229136 -51.53515625 34.28125 C-52.59154297 34.31863281 -53.64792969 34.35601563 -54.73632812 34.39453125 C-56.95767837 34.46496749 -59.17903256 34.53527955 -61.40039062 34.60546875 C-62.45548828 34.64285156 -63.51058594 34.68023438 -64.59765625 34.71875 C-65.56195557 34.74904297 -66.52625488 34.77933594 -67.51977539 34.81054688 C-70.13221503 34.90904162 -70.13221503 34.90904162 -73 36 C-71.75558987 26.52202697 -63.53152343 18.91461015 -56.5859375 12.94140625 C-49.28250762 7.45831765 -40.89609916 3.85829998 -31.7265625 3.5859375 C-30.57285156 3.54726563 -29.41914062 3.50859375 -28.23046875 3.46875 C-27.04066406 3.4378125 -25.85085938 3.406875 -24.625 3.375 C-23.41199219 3.33632813 -22.19898438 3.29765625 -20.94921875 3.2578125 C-17.96629479 3.16386214 -14.98337175 3.07819193 -12 3 C-23.40269614 -0.30493849 -39.13489101 -1.5506535 -50 4 C-59.92434356 9.78920041 -67.32214834 17.05424114 -72.87109375 27.09375 C-73.24363281 27.7228125 -73.61617187 28.351875 -74 29 C-74.33 29 -74.66 29 -75 29 C-76.9993693 18.28069232 -76.9993693 18.28069232 -74.75390625 13.15625 C-72.98057061 10.59695937 -71.0921961 8.30427056 -69 6 C-68.49339844 5.36449219 -67.98679687 4.72898437 -67.46484375 4.07421875 C-49.83263739 -16.26369702 -21.05546433 -10.15174173 0 0 Z " fill="#508C08" transform="translate(591,568)"/>
<path d="M0 0 C-0.31182069 1.41681634 -0.62448737 2.83344651 -0.9375 4.25 C-1.19853516 5.43335938 -1.19853516 5.43335938 -1.46484375 6.640625 C-2 9 -2 9 -2.5625 10.8125 C-3.2221039 14.11051948 -3.10363261 17.40243804 -3.0625 20.75 C-3.05798828 21.44738281 -3.05347656 22.14476562 -3.04882812 22.86328125 C-3.0371002 24.57555803 -3.01916653 26.28779033 -3 28 C-2.59910156 27.41992188 -2.19820313 26.83984375 -1.78515625 26.2421875 C3.51495418 18.95904256 9.4227519 13.9875808 18 11 C21.3125 10.875 21.3125 10.875 24 11 C23.60167969 11.60585938 23.20335937 12.21171875 22.79296875 12.8359375 C22.26316406 13.67382812 21.73335938 14.51171875 21.1875 15.375 C20.40439453 16.59316406 20.40439453 16.59316406 19.60546875 17.8359375 C15.12061526 26.67469986 14.60114511 34.8253654 14.8125 44.625 C14.874375 48.70875 14.93625 52.7925 15 57 C1.8 57 -11.4 57 -25 57 C-25 20.50769231 -25 20.50769231 -13.71484375 8.5859375 C-4.36397727 0 -4.36397727 0 0 0 Z " fill="#267215" transform="translate(354,428)"/>
<path d="M0 0 C2.265625 0.953125 2.265625 0.953125 4.25 2.25 C4.91515625 2.66765625 5.5803125 3.0853125 6.265625 3.515625 C9.09293477 5.93539462 9.88545115 8.24725041 10.4375 11.875 C9.85984127 16.00113377 8.05127677 18.3117932 5 21 C1.88659958 22.75506635 -1.37165682 24.05209249 -4.6875 25.375 C-12.42440132 28.66658863 -18.9685231 32.00338713 -25 38 C-25.69996094 38.68578125 -26.39992188 39.3715625 -27.12109375 40.078125 C-37.82389533 51.32719434 -45.19327553 66.40332697 -46 82 C-48.74277578 78.80009492 -50.6302836 75.99500618 -52 72 C-52.99 72 -53.98 72 -55 72 C-55.66 82.23 -56.32 92.46 -57 103 C-60 100 -60 100 -60.21484375 96.18359375 C-60.14406491 94.60044504 -60.05007261 93.0182267 -59.9375 91.4375 C-59.88295654 90.59413086 -59.82841309 89.75076172 -59.7722168 88.88183594 C-57.5768655 60.39270639 -45.30185866 36.6558013 -26 16 C-25.27941406 15.19820313 -24.55882812 14.39640625 -23.81640625 13.5703125 C-17.75676668 7.09493882 -9.39201851 -1.16450903 0 0 Z " fill="#FD7D07" transform="translate(368,367)"/>
<path d="M0 0 C3.72293327 2.55181187 6.81127019 5.81602949 10 9 C10.78117187 9.76957031 11.56234375 10.53914062 12.3671875 11.33203125 C27.99196011 27.63261582 32.8527021 48.00734921 33.4609375 70.125 C32.87952207 73.75145559 31.52195943 75.38086416 29 78 C26.23850865 79.55776435 24.66078043 80.04955853 21.5 79.8125 C19 79 19 79 17.55859375 77.0390625 C17.00365234 75.84410156 17.00365234 75.84410156 16.4375 74.625 C14.73282656 71.00330625 13.19902521 69.35576752 10 67 C9.6875 64.375 9.6875 64.375 10 62 C12.04698414 59.95301586 16.30411241 60.29954307 19 60 C19.64312646 48.42372375 15.63587397 38.35511884 7.94921875 29.6875 C0.92787097 22.89036333 -7.41906512 18.50339387 -16 14 C-15.19212573 10.14725624 -13.73332115 8.23446527 -11.0625 5.3125 C-10.35222656 4.52488281 -9.64195312 3.73726562 -8.91015625 2.92578125 C-6.00039229 -0.00778446 -4.07809811 -0.46504628 0 0 Z " fill="#1E680C" transform="translate(483,558)"/>
<path d="M0 0 C16.41061484 6.81195333 25.9582475 21.88868158 32.6730957 37.64428711 C42.43390073 62.3183221 41.24326419 89.87612678 34 115 C33.68933594 116.21429687 33.37867188 117.42859375 33.05859375 118.6796875 C28.66485404 134.79663406 19.39550594 151.05321604 9 164 C8 161 8 161 9.44140625 157.953125 C10.14155902 156.71483548 10.84910851 155.48071012 11.5625 154.25 C22.95228199 133.75138711 29.60718399 111.08013847 29.39111328 87.57275391 C29.37499733 85.49965712 29.39110168 83.42850832 29.41015625 81.35546875 C29.4489625 55.8985718 21.38621675 30.56256307 3.2734375 12.2421875 C1.50026293 10.48899236 -0.28755122 8.75040305 -2.09375 7.03125 C-4 5 -4 5 -4 3 C-2.68 2.67 -1.36 2.34 0 2 C0 1.34 0 0.68 0 0 Z " fill="#FDD012" transform="translate(662,590)"/>
<path d="M0 0 C2.94998615 1.53375774 3.68385288 2.27577931 5.625 5.1875 C6.50257669 10.38829659 6.21855274 14.89861204 3.4375 19.4375 C2.52211407 20.70378387 1.58538996 21.95499955 0.625 23.1875 C-0.096875 24.21875 -0.81875 25.25 -1.5625 26.3125 C-6.96944306 32.57497202 -15.53218903 36.58287534 -23.62890625 37.59375 C-32.10264575 37.83385596 -32.10264575 37.83385596 -35.328125 36.1953125 C-38.14850057 33.32630977 -38.72410475 30.15361444 -38.9375 26.3125 C-38.41335262 17.5461351 -34.09169676 12.18268614 -27.890625 6.23828125 C-20.00939788 -0.18663216 -9.73476344 -4.6457341 0 0 Z " fill="#FDF9F9" transform="translate(459.375,407.8125)"/>
<path d="M0 0 C4.02656581 20.276635 4.02656581 20.276635 0.6796875 26.42578125 C-3.4211163 31.45524242 -7.82435028 34.45921913 -14.3828125 35.30859375 C-20.26758249 35.60553169 -25.45246062 34.97423848 -30 31 C-33.19501251 26.62392517 -35.4865645 22.32879675 -36.65625 17.0234375 C-35.75604747 12.87607582 -33.83226409 11.68694734 -30.39697266 9.36572266 C-26.48798456 7.13849925 -22.43989591 5.62488285 -18.1875 4.1875 C-17.34251953 3.88908203 -16.49753906 3.59066406 -15.62695312 3.28320312 C-10.23214055 1.38494898 -5.79273703 -0.12872749 0 0 Z " fill="#8C1C1F" transform="translate(639,535)"/>
<path d="M0 0 C14.8178278 -0.27694957 29.36961071 0.56805005 44.125 1.875 C46.29598608 2.06118079 48.46704818 2.24647703 50.63818359 2.4309082 C53.84263872 2.70334609 57.04702254 2.97643625 60.25112915 3.25294495 C69.37243135 4.03996016 78.49782664 4.74635945 87.62939453 5.40380859 C92.45955505 5.76163035 97.21493108 6.24618777 102 7 C84.27629908 18.81580061 54.55523111 18.31198701 34.5 14.3125 C22.14311517 11.63617958 10.90845145 7.47828443 0 1 C0 0.67 0 0.34 0 0 Z " fill="#FEC40C" transform="translate(453,663)"/>
<path d="M0 0 C0.66 0 1.32 0 2 0 C5.07832841 4.61749261 5.17206329 8.9064406 5.25 14.375 C5.27578125 15.45523438 5.3015625 16.53546875 5.328125 17.6484375 C4.59505504 25.13622356 1.0612341 29.51024314 -4.1875 34.4375 C-4.74630859 34.97826172 -5.30511719 35.51902344 -5.88085938 36.07617188 C-7.24486291 37.39354281 -8.62118364 38.69814083 -10 40 C-13.88363538 38.77894434 -17.45173925 37.37690892 -21.0625 35.5 C-24.32234322 33.81085533 -27.57265183 32.31962069 -31 31 C-30.175 30.05125 -29.35 29.1025 -28.5 28.125 C-25.93930843 25.15555954 -23.52415648 22.10088604 -21.125 19 C-15.79679821 12.32455327 -9.97080366 7.288543 -2.56640625 3.04296875 C-0.83006007 2.07398573 -0.83006007 2.07398573 0 0 Z " fill="#73AB09" transform="translate(601,570)"/>
<path d="M0 0 C-1.86330909 2.00414059 -2.86257123 2.95189993 -5.5 3.875 C-8.87891788 3.99567564 -10.49464607 3.59777379 -13.625 2.5625 C-24.35633568 -0.63187564 -39.83019054 -1.19544614 -50 4 C-59.92434356 9.78920041 -67.32214834 17.05424114 -72.87109375 27.09375 C-73.24363281 27.7228125 -73.61617187 28.351875 -74 29 C-74.33 29 -74.66 29 -75 29 C-76.9993693 18.28069232 -76.9993693 18.28069232 -74.75390625 13.15625 C-72.98057061 10.59695937 -71.0921961 8.30427056 -69 6 C-68.49339844 5.36449219 -67.98679687 4.72898437 -67.46484375 4.07421875 C-49.83263739 -16.26369702 -21.05546433 -10.15174173 0 0 Z " fill="#2D7015" transform="translate(591,568)"/>
<path d="M0 0 C3.70113961 -0.03792151 6.63459119 0.4196383 10 2 C13.39013383 5.99341749 15.95465344 10.17838725 18 15 C16.75976392 18.72070823 15.04269852 19.62521091 12 22 C9.64880601 25.52679099 9.78556548 27.02879485 9.875 31.1875 C9.89304687 32.27417969 9.91109375 33.36085938 9.9296875 34.48046875 C9.95289063 35.31191406 9.97609375 36.14335938 10 37 C3.19103993 35.81638638 -6.58398817 33.92910898 -10.8125 28 C-12.07339383 24.81458401 -12.4218018 23.36962119 -12 20 C-10.63880728 17.56012626 -9.27212017 15.3448444 -7.6875 13.0625 C-4.80255778 8.81560738 -2.19915977 4.66164934 0 0 Z " fill="#76AB0F" transform="translate(586,522)"/>
<path d="M0 0 C0.33 0 0.66 0 1 0 C1.12375 0.680625 1.2475 1.36125 1.375 2.0625 C2.76939034 8.6161346 4.90126272 14.40533337 7.875 20.375 C8.20242188 21.04015625 8.52984375 21.7053125 8.8671875 22.390625 C11.9486686 28.3850687 15.54397179 32.95849762 21 37 C21 37.66 21 38.32 21 39 C18.79471728 39.67668949 16.58561391 40.34093498 14.375 41 C13.14523437 41.37125 11.91546875 41.7425 10.6484375 42.125 C7.26153174 42.93727719 4.46145571 43.17041013 1 43 C-0.82361067 39.77698876 -2.63187665 36.54561741 -4.4375 33.3125 C-4.95376953 32.40048828 -5.47003906 31.48847656 -6.00195312 30.54882812 C-6.74155273 29.21948242 -6.74155273 29.21948242 -7.49609375 27.86328125 C-7.95169678 27.05157471 -8.4072998 26.23986816 -8.87670898 25.40356445 C-10 23 -10 23 -10.46899414 20.32104492 C-10.80382957 17.63433395 -10.80382957 17.63433395 -14 16 C-13.22076172 15.67128906 -13.22076172 15.67128906 -12.42578125 15.3359375 C-7.23695127 12.97650649 -4.15881732 10.78608685 -1 6 C-0.126062 2.77566873 -0.126062 2.77566873 0 0 Z " fill="#A69D05" transform="translate(641,553)"/>
<path d="M0 0 C0.33 0 0.66 0 1 0 C1.20496094 1.18078125 1.40992188 2.3615625 1.62109375 3.578125 C1.89315305 5.13542997 2.16529268 6.6927209 2.4375 8.25 C2.57220703 9.02730469 2.70691406 9.80460938 2.84570312 10.60546875 C2.97783203 11.35957031 3.10996094 12.11367188 3.24609375 12.890625 C3.42676392 13.92751465 3.42676392 13.92751465 3.61108398 14.98535156 C3.87053004 16.32932445 4.17808574 17.66488066 4.53222656 18.98706055 C7.94081606 33.65502527 5.27423456 53.84801718 -2 67 C-3.60071502 63.92170189 -4.94322211 60.80121609 -6.1875 57.5625 C-6.73470703 56.17224609 -6.73470703 56.17224609 -7.29296875 54.75390625 C-8.10065514 51.60794545 -7.87798122 50.10312941 -7 47 C-6.690625 45.84886719 -6.38125 44.69773437 -6.0625 43.51171875 C-5.35618148 40.96949144 -4.64785923 38.42781995 -3.9375 35.88671875 C-2.01625969 27.92157663 -1.73704976 19.95340636 -1.39453125 11.80273438 C-1.20741005 7.77317603 -0.96215159 3.9368036 0 0 Z " fill="#F2AB08" transform="translate(635,601)"/>
<path d="M0 0 C2.57099039 2.99948879 3.87608184 5.13257291 4.4375 9.0625 C3.94839514 12.34648977 2.90179887 14.30578494 1 17 C-2.30133235 16.7323244 -3.62503298 16.4396165 -5.8125 13.875 C-7.28464312 10.31086402 -7.41736625 7.82585728 -7 4 C-4.9820461 0.06498989 -4.62157657 0 0 0 Z " fill="#FBEBEA" transform="translate(651,490)"/>
<path d="M0 0 C2.76890402 1.29792376 3.61647491 2.17044981 5 4.9375 C5.5562956 9.67029179 5.68789583 12.90565626 3 16.9375 C0.5625 17.375 0.5625 17.375 -2 16.9375 C-4.80896951 14.00115478 -5.41136294 11.89310531 -5.375 7.875 C-5.38273438 7.01777344 -5.39046875 6.16054688 -5.3984375 5.27734375 C-4.83718144 1.98134 -3.52435521 -0.1101361 0 0 Z " fill="#FCF2F3" transform="translate(662,457.0625)"/>
<path d="M0 0 C0.33 0 0.66 0 1 0 C1 8.25 1 16.5 1 25 C1.99 25.33 2.98 25.66 4 26 C1.66015625 25.7734375 1.66015625 25.7734375 -1 25 C-2.44140625 23.0390625 -2.44140625 23.0390625 -3.5625 20.625 C-5.26717344 17.00330625 -6.80097479 15.35576752 -10 13 C-10.3125 10.375 -10.3125 10.375 -10 8 C-7.95301586 5.95301586 -3.69588759 6.29954307 -1 6 C-0.67 4.02 -0.34 2.04 0 0 Z " fill="#90A40D" transform="translate(503,612)"/>
<path d="M0 0 C2.4375 -0.4375 2.4375 -0.4375 5 0 C7.95304802 2.44390181 8.00894121 4.09388274 8.375 7.9375 C8.25013703 11.64870483 7.2545672 13.99391041 5 17 C2.50289018 16.65557106 1.17845335 16.15296001 -0.75 14.5 C-2.60426618 10.79146764 -2.57810336 7.07675486 -2 3 C-1.34 2.01 -0.68 1.02 0 0 Z " fill="#FCF0F0" transform="translate(724,475)"/>
<path d="M0 0 C2.76890402 1.29792376 3.61647491 2.17044981 5 4.9375 C5.4082597 7.98841372 5.56952881 10.90559664 5 13.9375 C3.63671875 15.71875 3.63671875 15.71875 2 16.9375 C-0.5625 16.875 -0.5625 16.875 -3 15.9375 C-4.8314916 13.07026833 -5.29537198 10.74922046 -5.3125 7.375 C-5.32925781 6.61058594 -5.34601562 5.84617187 -5.36328125 5.05859375 C-4.81549628 1.86023633 -3.36769764 -0.10524055 0 0 Z " fill="#FCEFEE" transform="translate(713,505.0625)"/>
<path d="M0 0 C2.375 0.3125 2.375 0.3125 5 1 C7.07324138 4.10986207 7.27392186 4.89108387 7.25 8.4375 C7.25515625 9.19933594 7.2603125 9.96117187 7.265625 10.74609375 C6.9747292 13.21443018 6.22975656 14.857686 5 17 C1.69866765 16.7323244 0.37496702 16.4396165 -1.8125 13.875 C-3.28464312 10.31086402 -3.41736625 7.82585728 -3 4 C-1.5 1.5625 -1.5 1.5625 0 0 Z " fill="#FCF0EE" transform="translate(686,482)"/>
<path d="M0 0 C2.4375 -0.4375 2.4375 -0.4375 5 0 C7.30163762 1.82543674 7.91495505 3.26382967 8.25 6.1640625 C8.41202978 12.38195533 8.41202978 12.38195533 6 16 C3.5625 16.5 3.5625 16.5 1 16 C-1.60352141 13.12714879 -2.20130148 10.64184985 -2.3125 6.875 C-2 3 -2 3 0 0 Z " fill="#FCF2F1" transform="translate(671,515)"/>
<path d="M0 0 C3.28196064 0.56585528 4.93850566 1.36198605 7 4 C7.36328125 6.375 7.36328125 6.375 7.3125 9 C7.30863281 9.86625 7.30476562 10.7325 7.30078125 11.625 C7 14 7 14 5 17 C1.69866765 16.7323244 0.37496702 16.4396165 -1.8125 13.875 C-3.28464312 10.31086402 -3.41736625 7.82585728 -3 4 C-1.5 1.5625 -1.5 1.5625 0 0 Z " fill="#FCF0EF" transform="translate(698,450)"/>
<path d="M0 0 C2.4375 -0.375 2.4375 -0.375 5 0 C7.11556551 1.60682238 7.91014012 2.47533424 8.36328125 5.12109375 C8.34652344 5.88550781 8.32976563 6.64992188 8.3125 7.4375 C8.30863281 8.19933594 8.30476562 8.96117187 8.30078125 9.74609375 C7.9739386 12.19529127 7.21954601 13.86700917 6 16 C2.69866765 15.7323244 1.37496702 15.4396165 -0.8125 12.875 C-2.26916315 9.34834184 -2.35042485 6.78458841 -2 3 C-1.34 2.01 -0.68 1.02 0 0 Z " fill="#FCF1F0" transform="translate(696,537)"/>
<path d="M0 0 C2.5625 0.375 2.5625 0.375 4.375 1.8125 C6.10461675 5.54483089 6.32226917 9.3303465 5.5625 13.375 C4.1640625 15.15234375 4.1640625 15.15234375 2.5625 16.375 C0.5625 16.375 0.5625 16.375 -1.4375 15.375 C-4.98795226 11.19053841 -4.86683525 7.61289002 -4.4375 2.375 C-2.4375 0.375 -2.4375 0.375 0 0 Z " fill="#FBECEA" transform="translate(614.4375,501.625)"/>
<path d="M0 0 C2.93167219 0.31693753 4.58982661 0.63225834 6.8125 2.625 C8.46999413 5.93998827 8.39203556 8.34100144 8 12 C6.5 14.4375 6.5 14.4375 5 16 C2.625 15.6875 2.625 15.6875 0 15 C-2.08133467 11.877998 -2.2737822 11.06733011 -2.25 7.5 C-2.25773438 6.33984375 -2.25773438 6.33984375 -2.265625 5.15625 C-2 3 -2 3 0 0 Z " fill="#FCF3F2" transform="translate(621,467)"/>
<path d="M0 0 C2.88949684 0.31237804 4.58633099 0.64338879 6.8125 2.5625 C8.61831894 6.26918098 8.39189103 8.88514421 8 13 C6.75 15.0625 6.75 15.0625 5 16 C2.31778773 15.91618087 1.24395589 15.21781776 -0.75 13.4375 C-2.63044044 9.77064114 -2.32613053 7.10924462 -2 3 C-1.34 2.01 -0.68 1.02 0 0 Z " fill="#FCEFEF" transform="translate(679,564)"/>
<path d="M0 0 C-0.99 0.33 -1.98 0.66 -3 1 C1.95 1.33 6.9 1.66 12 2 C12 2.33 12 2.66 12 3 C11.41210693 3.01981934 10.82421387 3.03963867 10.21850586 3.06005859 C-8.90602807 3.41136925 -8.90602807 3.41136925 -27.65234375 6.75 C-30 7 -30 7 -32.3125 5.5625 C-32.869375 5.046875 -33.42625 4.53125 -34 4 C-32.75605469 3.80664062 -31.51210938 3.61328125 -30.23046875 3.4140625 C-28.54945307 3.15120848 -26.86846532 2.88817589 -25.1875 2.625 C-23.88703735 2.42245605 -23.88703735 2.42245605 -22.56030273 2.21582031 C-17.05420715 1.35014344 -11.58279864 0.38993486 -6.12890625 -0.765625 C-3.82012793 -1.01980243 -2.19926532 -0.70136024 0 0 Z " fill="#E9DEBE" transform="translate(682,429)"/>
<path d="M0 0 C0.99 0.33 1.98 0.66 3 1 C2.34 1 1.68 1 1 1 C0.34 11.23 -0.32 21.46 -1 32 C-4 29 -4 29 -4.29638672 27.07397461 C-4.25787598 26.35733643 -4.21936523 25.64069824 -4.1796875 24.90234375 C-4.14029053 24.10481689 -4.10089355 23.30729004 -4.06030273 22.4855957 C-3.99915283 21.64472412 -3.93800293 20.80385254 -3.875 19.9375 C-3.822229 19.08438232 -3.76945801 18.23126465 -3.71508789 17.35229492 C-3.27078113 11.28626541 -2.31438223 5.66223074 0 0 Z " fill="#ED741A" transform="translate(312,438)"/>
<path d="M0 0 C1.94908295 2.92362443 3.33667844 5.72576646 4.75 8.9375 C5.45382812 10.49791016 5.45382812 10.49791016 6.171875 12.08984375 C7 15 7 15 6.265625 17.25390625 C5 19 5 19 3 21 C2.49265716 18.6263603 1.99397614 16.25142575 1.5 13.875 C1.35691406 13.20984375 1.21382813 12.5446875 1.06640625 11.859375 C0.2387717 7.83943578 -0.15330658 4.10095101 0 0 Z " fill="#9C0C0C" transform="translate(378,697)"/>
<path d="M0 0 C0.66 0.33 1.32 0.66 2 1 C-3 6 -8 11 -13 16 C-13.66 16 -14.32 16 -15 16 C-16.37310707 17.29233607 -17.71034824 18.62437146 -19 20 C-19.66 19.67 -20.32 19.34 -21 19 C-14.36160959 12.13444033 -7.6349184 5.78001415 0 0 Z " fill="#D4E8CF" transform="translate(550,284)"/>
<path d="M0 0 C1.14743037 3.44229111 0.80165649 4.97767853 0.125 8.5 C-0.9257911 14.32195069 -1.55891673 20.1034131 -2 26 C-2.33 26 -2.66 26 -3 26 C-3.33 24.35 -3.66 22.7 -4 21 C-4.66 21.99 -5.32 22.98 -6 24 C-5.55052002 15.45988044 -2.85091417 7.98466367 0 0 Z " fill="#CBE7C4" transform="translate(502,218)"/>
<path d="M0 0 C0.99 0.33 1.98 0.66 3 1 C3.05418326 3.08304538 3.09287551 5.16649768 3.125 7.25 C3.14820313 8.41015625 3.17140625 9.5703125 3.1953125 10.765625 C3.0103949 13.82786046 2.60823023 15.44202751 1 18 C0.67 17.34 0.34 16.68 0 16 C-0.66 16.99 -1.32 17.98 -2 19 C-1.34 12.73 -0.68 6.46 0 0 Z " fill="#FDEFB1" transform="translate(623,589)"/>
<path d="M0 0 C3 1 3 1 4 3 C4.14640501 4.64142541 4.22096589 6.2898141 4.25 7.9375 C4.28867187 9.25041016 4.28867187 9.25041016 4.328125 10.58984375 C3.94290357 13.4193869 3.19305243 14.25132925 1 16 C0 15 0 15 -0.09765625 11.62109375 C-0.09098369 10.22652923 -0.07902532 8.83198257 -0.0625 7.4375 C-0.05798828 6.72658203 -0.05347656 6.01566406 -0.04882812 5.28320312 C-0.03700864 3.52209987 -0.01907263 1.76103964 0 0 Z " fill="#FAEAE8" transform="translate(659,545)"/>
<path d="M0 0 C0 3.63898996 -0.66329035 4.0879168 -3.0625 6.6875 C-3.69414063 7.38230469 -4.32578125 8.07710937 -4.9765625 8.79296875 C-5.97816406 9.88544922 -5.97816406 9.88544922 -7 11 C-8.31627371 12.4966896 -9.62897484 13.99653129 -10.9375 15.5 C-11.95833333 16.66666667 -12.97916667 17.83333333 -14 19 C-14.66 18.34 -15.32 17.68 -16 17 C-14.43910887 15.2693809 -12.87621088 13.54057173 -11.3125 11.8125 C-10.44238281 10.84957031 -9.57226562 9.88664063 -8.67578125 8.89453125 C-6.17884963 6.19347091 -3.61895772 3.58226479 -1 1 C-0.67 0.67 -0.34 0.34 0 0 Z " fill="#DEEDC1" transform="translate(857,620)"/>
<path d="M0 0 C0.87011719 0.00451172 1.74023438 0.00902344 2.63671875 0.01367188 C4.75784293 0.0253264 6.8789311 0.04325643 9 0.0625 C6.65085508 2.41164492 5.04320554 2.79390357 1.875 3.6875 C0.96492188 3.94789063 0.05484375 4.20828125 -0.8828125 4.4765625 C-1.58148438 4.66992188 -2.28015625 4.86328125 -3 5.0625 C-2.67 4.0725 -2.34 3.0825 -2 2.0625 C-7.28 2.0625 -12.56 2.0625 -18 2.0625 C-18 1.7325 -18 1.4025 -18 1.0625 C-11.95180188 0.17347088 -6.10776514 -0.06098383 0 0 Z " fill="#89B836" transform="translate(451,204.9375)"/>
<path d="M0 0 C1.49732386 3.91236233 0.49212669 6.7714902 -0.6875 10.6875 C-1.02136719 11.84636719 -1.35523438 13.00523437 -1.69921875 14.19921875 C-3 17 -3 17 -5.14453125 17.89453125 C-6.06298828 17.94673828 -6.06298828 17.94673828 -7 18 C-5.64474464 13.78224268 -4.09799886 9.70578678 -2.375 5.625 C-1.92898438 4.56539063 -1.48296875 3.50578125 -1.0234375 2.4140625 C-0.68570313 1.61742187 -0.34796875 0.82078125 0 0 Z " fill="#D9ECBF" transform="translate(848,501)"/>
<path d="M0 0 C0.66 0 1.32 0 2 0 C2.66 2.31 3.32 4.62 4 7 C3.01 7.495 3.01 7.495 2 8 C1.68758629 10.54941373 1.48696579 13.00361513 1.375 15.5625 C1.33632812 16.27341797 1.29765625 16.98433594 1.2578125 17.71679688 C1.16328217 19.47742425 1.08054183 21.23867728 1 23 C0.67 23 0.34 23 0 23 C0 15.41 0 7.82 0 0 Z " fill="#89B434" transform="translate(130,551)"/>
<path d="M0 0 C1.1683932 3.50517959 0.59694167 5.04244901 -0.8984375 8.34765625 C-2.67415452 11.01123178 -5.08476846 11.89869031 -8 13 C-4 2 -4 2 0 0 Z " fill="#ECF5DF" transform="translate(842,518)"/>
<path d="M0 0 C6.75 0.75 6.75 0.75 9 3 C1.74 3 -5.52 3 -13 3 C-13 2.67 -13 2.34 -13 2 C-8.71 2 -4.42 2 0 2 C0 1.34 0 0.68 0 0 Z " fill="#E0ECD0" transform="translate(572,569)"/>
<path d="M0 0 C0.66 0.33 1.32 0.66 2 1 C-0.07430827 3.15524226 -2.15853821 5.29901391 -4.25 7.4375 C-4.83652344 8.04916016 -5.42304688 8.66082031 -6.02734375 9.29101562 C-6.88779297 10.1659668 -6.88779297 10.1659668 -7.765625 11.05859375 C-8.55114746 11.86768188 -8.55114746 11.86768188 -9.35253906 12.69311523 C-11.21582454 14.17120758 -12.67793522 14.59165211 -15 15 C-14.67 14.01 -14.34 13.02 -14 12 C-12.66666667 11.33333333 -11.33333333 10.66666667 -10 10 C-8.20401682 8.34007615 -6.4566899 6.6266028 -4.75 4.875 C-3.85796875 3.96492188 -2.9659375 3.05484375 -2.046875 2.1171875 C-1.37140625 1.41851562 -0.6959375 0.71984375 0 0 Z " fill="#EAF2DB" transform="translate(304,353)"/>
<path d="M0 0 C2.64521932 2.64521932 3.44542519 5.66171349 4.625 9.125 C4.85445312 9.78371094 5.08390625 10.44242187 5.3203125 11.12109375 C5.88536242 12.74561226 6.44336277 14.37257971 7 16 C6.01 16.33 5.02 16.66 4 17 C3.32635339 14.91891315 2.66133202 12.8350329 2 10.75 C1.62875 9.58984375 1.2575 8.4296875 0.875 7.234375 C0 4 0 4 0 0 Z " fill="#E1EFCC" transform="translate(175,500)"/>
<path d="M0 0 C0.90492188 0.02320313 1.80984375 0.04640625 2.7421875 0.0703125 C4.10730469 0.09738281 4.10730469 0.09738281 5.5 0.125 C6.19867188 0.14820313 6.89734375 0.17140625 7.6171875 0.1953125 C6.2971875 0.5253125 4.9771875 0.8553125 3.6171875 1.1953125 C3.2871875 2.8453125 2.9571875 4.4953125 2.6171875 6.1953125 C-0.8478125 4.2153125 -0.8478125 4.2153125 -4.3828125 2.1953125 C-2.3828125 0.1953125 -2.3828125 0.1953125 0 0 Z " fill="#63A149" transform="translate(284.3828125,459.8046875)"/>
<path d="M0 0 C1.32 0.99 2.64 1.98 4 3 C3.21302675 6.41021743 2.12880057 9.68885166 1 13 C0.67 13 0.34 13 0 13 C0 8.71 0 4.42 0 0 Z " fill="#95C84A" transform="translate(215,477)"/>
<path d="M0 0 C-0.33 0.99 -0.66 1.98 -1 3 C-1.66 3 -2.32 3 -3 3 C-3.33 3.99 -3.66 4.98 -4 6 C-6.64 5.67 -9.28 5.34 -12 5 C-8.45976076 2.63984051 -4.36489861 0 0 0 Z " fill="#FDD336" transform="translate(582,667)"/>
<path d="M0 0 C1.23556641 0.01740234 1.23556641 0.01740234 2.49609375 0.03515625 C3.32238281 0.04417969 4.14867187 0.05320312 5 0.0625 C5.63808594 0.07410156 6.27617187 0.08570313 6.93359375 0.09765625 C6.93359375 0.75765625 6.93359375 1.41765625 6.93359375 2.09765625 C4.91536458 2.55338542 2.89713542 3.00911458 0.87890625 3.46484375 C-1.27360589 4.00240053 -1.27360589 4.00240053 -3.06640625 6.09765625 C-3.10912725 4.4315372 -3.10704457 2.7638274 -3.06640625 1.09765625 C-2.06640625 0.09765625 -2.06640625 0.09765625 0 0 Z " fill="#AC8401" transform="translate(496.06640625,618.90234375)"/>
<path d="M0 0 C0.33 0.99 0.66 1.98 1 3 C1.66 3.33 2.32 3.66 3 4 C0.36 6.31 -2.28 8.62 -5 11 C-5 7.58678765 -4.33132534 6.60527115 -2.5 3.8125 C-2.0359375 3.09707031 -1.571875 2.38164063 -1.09375 1.64453125 C-0.7328125 1.10183594 -0.371875 0.55914063 0 0 Z " fill="#399749" transform="translate(692,739)"/>
<path d="M0 0 C0 3.3 0 6.6 0 10 C-0.66 10 -1.32 10 -2 10 C-2.66 7.03 -3.32 4.06 -4 1 C-1 0 -1 0 0 0 Z " fill="#9DCA60" transform="translate(809,480)"/>
<path d="M0 0 C2.12508244 3.18762365 2.5020163 5.26512223 3 9 C0.69 7.02 -1.62 5.04 -4 3 C-2 1 -2 1 0 0 Z " fill="#92C148" transform="translate(731,358)"/>
<path d="M0 0 C-0.66 2.97 -1.32 5.94 -2 9 C-2.33 9 -2.66 9 -3 9 C-3 7.35 -3 5.7 -3 4 C-4.32 3.67 -5.64 3.34 -7 3 C-2.25 0 -2.25 0 0 0 Z " fill="#519543" transform="translate(354,428)"/>
<path d="M0 0 C3.63 0 7.26 0 11 0 C8 3 8 3 6 4 C3.96855359 3.06553465 1.96466413 2.06775224 0 1 C0 0.67 0 0.34 0 0 Z " fill="#7CB122" transform="translate(557,207)"/>
<path d="M0 0 C1.10844919 3.32534757 0.84454356 5.62182575 0 9 C-0.66 8.01 -1.32 7.02 -2 6 C-2.99 6 -3.98 6 -5 6 C-3.35 4.02 -1.7 2.04 0 0 Z " fill="#FDC734" transform="translate(591,678)"/>
<path d="M0 0 C-1.64110448 3.28220895 -4.69322988 3.74570789 -8 5 C-8.99 5 -9.98 5 -11 5 C-4.85714286 -0.71428571 -4.85714286 -0.71428571 0 0 Z " fill="#3F8230" transform="translate(483,558)"/>
<path d="M0 0 C0.66 0.66 1.32 1.32 2 2 C2.99 2.33 3.98 2.66 5 3 C2.03 5.475 2.03 5.475 -1 8 C-0.67 5.36 -0.34 2.72 0 0 Z " fill="#8DBA3C" transform="translate(292,358)"/>
<path d="M0 0 C1.12894876 0.93274109 2.25300876 1.87140122 3.375 2.8125 C4.00148437 3.33457031 4.62796875 3.85664062 5.2734375 4.39453125 C7 6 7 6 9 9 C6 9 6 9 4.39453125 7.5390625 C3.61142578 6.59160156 3.61142578 6.59160156 2.8125 5.625 C2.28269531 4.99851562 1.75289062 4.37203125 1.20703125 3.7265625 C0 2 0 2 0 0 Z " fill="#D9E9B2" transform="translate(167,621)"/>
<path d="M0 0 C0.33 1.32 0.66 2.64 1 4 C-3.39453125 8.00390625 -3.39453125 8.00390625 -5 9 C-5.99 8.67 -6.98 8.34 -8 8 C-6.50260417 6.79557292 -5.00520833 5.59114583 -3.5078125 4.38671875 C-1.74707893 2.87729455 -1.74707893 2.87729455 0 0 Z " fill="#907903" transform="translate(640,559)"/>
<path d="M0 0 C0.99 0.33 1.98 0.66 3 1 C1.60667426 4.36720387 0.0210714 5.9859524 -3 8 C-1.125 2.25 -1.125 2.25 0 0 Z " fill="#34B253" transform="translate(743,528)"/>
<path d="M0 0 C0.66 0.33 1.32 0.66 2 1 C-0.64 3.64 -3.28 6.28 -6 9 C-6.66 8.34 -7.32 7.68 -8 7 C-5.36 4.69 -2.72 2.38 0 0 Z " fill="#CFE8A7" transform="translate(351,261)"/>
<path d="M0 0 C0.99 0 1.98 0 3 0 C2.67 3.3 2.34 6.6 2 10 C1.67 10 1.34 10 1 10 C0.67 6.7 0.34 3.4 0 0 Z " fill="#428330" transform="translate(529,154)"/>
<path d="M0 0 C0.33 0 0.66 0 1 0 C1 1.98 1 3.96 1 6 C0.01 6.33 -0.98 6.66 -2 7 C-2.125 4.625 -2.125 4.625 -2 2 C-1.34 1.34 -0.68 0.68 0 0 Z " fill="#980406" transform="translate(384,714)"/>
</svg>
